<?xml version="1.0" encoding="utf-8"?>
<!-- Generator: Adobe Illustrator 14.0.0, SVG Export Plug-In . SVG Version: 6.00 Build 43363)  -->
<!DOCTYPE svg PUBLIC "-//W3C//DTD SVG 1.1//EN" "http://www.w3.org/Graphics/SVG/1.1/DTD/svg11.dtd">
<svg version="1.1" id="Layer_1" xmlns="http://www.w3.org/2000/svg" xmlns:xlink="http://www.w3.org/1999/xlink" x="0px" y="0px"
	 width="401.48px" height="55.196px" viewBox="0 0 401.48 55.196" enable-background="new 0 0 401.48 55.196" xml:space="preserve">
<g>
	<path fill="#95A0A9" d="M10.348,11.535H6.213v6.888c0,1.698,0,3.492,2.178,3.492c0.674,0,1.474-0.096,2.051-0.448v2.627
		c-0.672,0.386-2.016,0.513-2.594,0.513c-4.454,0-4.518-2.724-4.518-5.157v-7.914H0V9.036h3.33V4.775h2.883v4.261h4.135V11.535z"/>
	<path fill="#95A0A9" d="M14.319,0h2.885v11.375h0.065c0.736-1.602,2.658-2.722,4.998-2.722c2.947,0,5.51,1.76,5.51,5.797v9.772
		h-2.885v-8.97c0-2.851-1.635-3.909-3.459-3.909c-2.403,0-4.229,1.538-4.229,5.063v7.816h-2.885V0z"/>
	<path fill="#95A0A9" d="M34.571,17.687c0,2.659,2.465,4.422,5.125,4.422c1.762,0,3.043-0.898,4.166-2.275l2.178,1.665
		c-1.603,2.083-3.812,3.109-6.729,3.109c-4.805,0-7.817-3.46-7.817-7.978c0-4.55,3.299-7.978,7.848-7.978
		c5.352,0,7.403,4.1,7.403,8.009v1.025H34.571z M43.669,15.38c-0.062-2.531-1.473-4.422-4.389-4.422
		c-2.852,0-4.709,2.404-4.709,4.422H43.669z"/>
	<polygon fill="#FFFFFF" points="0.058,31.935 3.133,31.935 3.133,51.737 13.546,51.737 13.546,54.619 0.058,54.619 	"/>
	<path fill="#FFFFFF" d="M19.6,31.935v13.906c0,2.819,1.412,6.472,5.706,6.472c4.293,0,5.701-3.652,5.701-6.472V31.935h3.077v14.387
		c0,5.254-3.815,8.875-8.778,8.875c-4.968,0-8.78-3.621-8.78-8.875V31.935H19.6z"/>
	<polygon fill="#FFFFFF" points="45.008,42.7 37.38,31.936 41.322,31.936 47.219,40.649 53.052,31.936 56.894,31.936 49.333,42.669 
		57.663,54.619 53.626,54.619 47.121,44.783 40.586,54.619 36.773,54.619 	"/>
	<path fill="#FFFFFF" d="M63.431,31.935v13.906c0,2.819,1.41,6.472,5.704,6.472c4.293,0,5.703-3.652,5.703-6.472V31.935h3.075
		v14.387c0,5.254-3.811,8.875-8.778,8.875c-4.966,0-8.778-3.621-8.778-8.875V31.935H63.431z"/>
	<path fill="#FFFFFF" d="M83.585,31.936h7.977c5.799,0,7.274,3.493,7.274,6.344c0,2.883-2.149,5.607-5.577,5.992l6.442,10.348
		h-3.846l-5.768-9.996h-3.428v9.996h-3.074V31.936z M86.659,41.932h4.037c2.436,0,4.87-0.577,4.87-3.652
		c0-3.077-2.434-3.653-4.87-3.653h-4.037V41.932z"/>
	<polygon fill="#FFFFFF" points="108.194,44.943 99.605,31.936 103.547,31.936 109.733,41.9 116.109,31.936 119.857,31.936 
		111.268,44.943 111.268,54.619 108.194,54.619 	"/>
	<path fill="#FFFFFF" d="M145.333,36.837c-1.281-1.665-3.397-2.595-5.477-2.595c-5.094,0-8.459,4.068-8.459,9.229
		c0,4.773,3.172,8.841,8.459,8.841c2.594,0,4.58-1.153,5.928-3.043l2.594,1.954c-0.672,0.93-3.396,3.973-8.586,3.973
		c-7.212,0-11.663-6.023-11.663-11.725c0-7.05,4.838-12.112,11.823-12.112c2.979,0,6.117,1.12,7.946,3.524L145.333,36.837z"/>
	<polygon fill="#FFFFFF" points="152.352,31.936 155.427,31.936 155.427,41.354 167.184,41.354 167.184,31.937 170.262,31.937 
		170.262,54.619 167.184,54.619 167.184,44.238 155.427,44.238 155.427,54.619 152.352,54.619 	"/>
	<path fill="#FFFFFF" d="M183.465,31.937h2.783l9.71,22.682h-3.588l-2.276-5.606h-10.797l-2.243,5.606h-3.59L183.465,31.937z
		 M188.973,46.321l-4.23-10.414h-0.063l-4.296,10.414H188.973z"/>
	<path fill="#FFFFFF" d="M199.16,31.937h7.979c5.799,0,7.273,3.491,7.273,6.343c0,2.884-2.148,5.606-5.576,5.991l6.439,10.349
		h-3.844l-5.768-9.996h-3.427v9.996h-3.078V31.937z M202.238,41.931h4.035c2.437,0,4.87-0.576,4.87-3.651
		c0-3.076-2.434-3.653-4.87-3.653h-4.035V41.931z"/>
	<polygon fill="#FFFFFF" points="223.164,34.818 215.861,34.818 215.861,31.937 233.545,31.937 233.545,34.818 226.24,34.818 
		226.24,54.619 223.164,54.619 	"/>
	<polygon fill="#FFFFFF" points="237.067,31.937 251.708,31.937 251.708,34.818 240.145,34.818 240.145,41.579 250.91,41.579 
		250.91,44.462 240.145,44.462 240.145,51.735 252.287,51.735 252.287,54.619 237.067,54.619 	"/>
	<path fill="#FFFFFF" d="M256.903,31.937h7.975c5.799,0,7.274,3.491,7.274,6.343c0,2.884-2.147,5.606-5.577,5.991l6.442,10.349
		h-3.843l-5.77-9.996h-3.428v9.996h-3.074V31.937z M259.977,41.931h4.034c2.437,0,4.872-0.576,4.872-3.651
		c0-3.076-2.436-3.653-4.872-3.653h-4.034V41.931z"/>
	<path fill="#95A0A9" d="M394.207,32.068h-7.981v22.551h3.081v-9.861h4.9c5.799,0,7.273-3.493,7.273-6.347
		C401.48,35.562,400.005,32.068,394.207,32.068 M393.343,42.065h-4.037v-7.305h4.037c2.434,0,4.869,0.576,4.869,3.65
		C398.212,41.489,395.777,42.065,393.343,42.065 M375.431,45.975c0,2.819-1.41,6.471-5.703,6.471c-4.295,0-5.702-3.651-5.702-6.471
		V32.068h-3.08v14.385c0,3.883,2.086,6.868,5.176,8.166h7.212c3.089-1.298,5.173-4.283,5.173-8.166V32.068h-3.075V45.975z
		 M325.77,38.411c0-2.85-1.473-6.343-7.273-6.343h-7.976v22.551h3.074v-9.861h3.428l5.689,9.861h3.84l-6.359-10.217
		C323.624,44.021,325.77,41.298,325.77,38.411 M313.595,42.065v-7.305h4.038c2.435,0,4.869,0.576,4.869,3.65
		c0,3.078-2.435,3.654-4.869,3.654H313.595z M342.816,31.493c-6.92,0-11.822,5.189-11.822,11.918c0,5.267,3.01,9.577,7.632,11.208
		h8.382c4.622-1.631,7.632-5.941,7.632-11.208C354.639,36.683,349.736,31.493,342.816,31.493 M342.816,52.445
		c-5.189,0-8.557-4.067-8.557-9.034s3.367-9.036,8.557-9.036c5.19,0,8.554,4.069,8.554,9.036S348.006,52.445,342.816,52.445
		 M294.5,44.948h5.029v6.313c-1.377,0.769-3.428,1.185-5.572,1.185c-5,0-8.813-3.908-8.813-9.034c0-4.967,3.363-9.036,8.556-9.036
		c2.273,0,4.422,0.609,6.279,2.404l2.179-2.34c-1.763-1.825-4.295-2.946-8.458-2.946c-6.921,0-11.823,5.189-11.823,11.918
		c0,5.07,2.772,9.534,7.703,11.208h9.604c1.277-0.342,2.48-0.798,3.422-1.372V42.065H294.5V44.948z"/>
</g>
</svg>
