<?xml version="1.0" encoding="utf-8"?>
<!-- Generator: Adobe Illustrator 14.0.0, SVG Export Plug-In . SVG Version: 6.00 Build 43363)  -->
<!DOCTYPE svg PUBLIC "-//W3C//DTD SVG 1.1//EN" "http://www.w3.org/Graphics/SVG/1.1/DTD/svg11.dtd">
<svg version="1.1" id="Layer_1" xmlns="http://www.w3.org/2000/svg" xmlns:xlink="http://www.w3.org/1999/xlink" x="0px" y="0px"
	 width="466.093px" height="80.024px" viewBox="0 0 466.093 80.024" enable-background="new 0 0 466.093 80.024"
	 xml:space="preserve">
<g>
	<path fill="#95A0A9" d="M74.961,36.363h-4.135v6.888c0,1.698,0,3.492,2.178,3.492c0.674,0,1.474-0.096,2.051-0.448v2.627
		c-0.672,0.386-2.016,0.513-2.594,0.513c-4.454,0-4.518-2.724-4.518-5.157v-7.914h-3.33v-2.499h3.33v-4.261h2.883v4.261h4.135
		V36.363z"/>
	<path fill="#95A0A9" d="M78.932,24.828h2.885v11.375h0.065c0.736-1.602,2.658-2.722,4.998-2.722c2.947,0,5.51,1.76,5.51,5.797
		v9.772h-2.885v-8.97c0-2.851-1.635-3.909-3.459-3.909c-2.403,0-4.229,1.538-4.229,5.063v7.816h-2.885V24.828z"/>
	<path fill="#95A0A9" d="M99.184,42.514c0,2.659,2.465,4.422,5.125,4.422c1.762,0,3.043-0.898,4.166-2.275l2.178,1.665
		c-1.603,2.083-3.812,3.109-6.729,3.109c-4.805,0-7.817-3.46-7.817-7.978c0-4.55,3.299-7.978,7.848-7.978
		c5.352,0,7.403,4.1,7.403,8.009v1.025H99.184z M108.282,40.208c-0.062-2.531-1.473-4.422-4.389-4.422
		c-2.852,0-4.709,2.404-4.709,4.422H108.282z"/>
	<polygon fill="#FFFFFF" points="64.67,56.762 67.746,56.762 67.746,76.565 78.159,76.565 78.159,79.447 64.67,79.447 	"/>
	<path fill="#FFFFFF" d="M84.212,56.762v13.906c0,2.819,1.412,6.472,5.706,6.472c4.293,0,5.701-3.652,5.701-6.472V56.762h3.077
		v14.387c0,5.254-3.815,8.875-8.778,8.875c-4.968,0-8.78-3.621-8.78-8.875V56.762H84.212z"/>
	<polygon fill="#FFFFFF" points="109.621,67.528 101.993,56.763 105.935,56.763 111.832,65.477 117.665,56.763 121.507,56.763 
		113.946,67.497 122.276,79.447 118.239,79.447 111.734,69.611 105.199,79.447 101.386,79.447 	"/>
	<path fill="#FFFFFF" d="M128.044,56.762v13.906c0,2.819,1.41,6.472,5.704,6.472c4.293,0,5.703-3.652,5.703-6.472V56.762h3.075
		v14.387c0,5.254-3.811,8.875-8.778,8.875c-4.966,0-8.778-3.621-8.778-8.875V56.762H128.044z"/>
	<path fill="#FFFFFF" d="M148.198,56.763h7.977c5.799,0,7.274,3.493,7.274,6.344c0,2.883-2.149,5.607-5.577,5.992l6.442,10.348
		h-3.846l-5.768-9.996h-3.428v9.996h-3.074V56.763z M151.272,66.759h4.037c2.436,0,4.87-0.577,4.87-3.652
		c0-3.077-2.434-3.653-4.87-3.653h-4.037V66.759z"/>
	<polygon fill="#FFFFFF" points="172.807,69.771 164.218,56.763 168.16,56.763 174.346,66.728 180.722,56.763 184.47,56.763 
		175.881,69.771 175.881,79.447 172.807,79.447 	"/>
	<path fill="#FFFFFF" d="M209.946,61.665c-1.281-1.665-3.397-2.595-5.477-2.595c-5.094,0-8.459,4.068-8.459,9.229
		c0,4.773,3.172,8.841,8.459,8.841c2.594,0,4.58-1.153,5.928-3.043l2.594,1.954c-0.672,0.93-3.396,3.973-8.586,3.973
		c-7.212,0-11.663-6.023-11.663-11.725c0-7.05,4.838-12.112,11.823-12.112c2.979,0,6.117,1.12,7.946,3.524L209.946,61.665z"/>
	<polygon fill="#FFFFFF" points="216.965,56.763 220.04,56.763 220.04,66.182 231.797,66.182 231.797,56.764 234.875,56.764 
		234.875,79.447 231.797,79.447 231.797,69.066 220.04,69.066 220.04,79.447 216.965,79.447 	"/>
	<path fill="#FFFFFF" d="M248.078,56.764h2.783l9.71,22.682h-3.588l-2.276-5.606H243.91l-2.243,5.606h-3.59L248.078,56.764z
		 M253.586,71.149l-4.23-10.414h-0.063l-4.296,10.414H253.586z"/>
	<path fill="#FFFFFF" d="M263.772,56.764h7.979c5.799,0,7.273,3.491,7.273,6.343c0,2.884-2.148,5.606-5.576,5.991l6.439,10.349
		h-3.844l-5.768-9.996h-3.427v9.996h-3.078V56.764z M266.851,66.758h4.035c2.437,0,4.87-0.576,4.87-3.651
		c0-3.076-2.434-3.653-4.87-3.653h-4.035V66.758z"/>
	<polygon fill="#FFFFFF" points="287.776,59.646 280.474,59.646 280.474,56.764 298.158,56.764 298.158,59.646 290.853,59.646 
		290.853,79.447 287.776,79.447 	"/>
	<polygon fill="#FFFFFF" points="301.68,56.764 316.321,56.764 316.321,59.646 304.758,59.646 304.758,66.407 315.522,66.407 
		315.522,69.29 304.758,69.29 304.758,76.563 316.899,76.563 316.899,79.447 301.68,79.447 	"/>
	<path fill="#FFFFFF" d="M321.516,56.764h7.975c5.799,0,7.274,3.491,7.274,6.343c0,2.884-2.147,5.606-5.577,5.991l6.442,10.349
		h-3.843l-5.77-9.996h-3.428v9.996h-3.074V56.764z M324.59,66.758h4.034c2.437,0,4.872-0.576,4.872-3.651
		c0-3.076-2.436-3.653-4.872-3.653h-4.034V66.758z"/>
	<path fill="#95A0A9" d="M458.819,56.896h-7.981v22.551h3.081v-9.861h4.9c5.799,0,7.273-3.493,7.273-6.347
		C466.093,60.389,464.618,56.896,458.819,56.896 M457.956,66.893h-4.037v-7.305h4.037c2.434,0,4.869,0.576,4.869,3.65
		C462.825,66.317,460.39,66.893,457.956,66.893 M440.044,70.802c0,2.819-1.41,6.471-5.703,6.471c-4.295,0-5.702-3.651-5.702-6.471
		V56.896h-3.08v14.385c0,3.883,2.086,6.868,5.176,8.166h7.212c3.089-1.298,5.173-4.283,5.173-8.166V56.896h-3.075V70.802z
		 M390.383,63.239c0-2.85-1.473-6.343-7.273-6.343h-7.976v22.551h3.074v-9.861h3.428l5.689,9.861h3.84l-6.359-10.217
		C388.236,68.849,390.383,66.125,390.383,63.239 M378.208,66.893v-7.305h4.038c2.435,0,4.869,0.576,4.869,3.65
		c0,3.078-2.435,3.654-4.869,3.654H378.208z M407.429,56.321c-6.92,0-11.822,5.189-11.822,11.918c0,5.267,3.01,9.577,7.632,11.208
		h8.382c4.622-1.631,7.632-5.941,7.632-11.208C419.252,61.51,414.349,56.321,407.429,56.321 M407.429,77.273
		c-5.189,0-8.557-4.067-8.557-9.034s3.367-9.036,8.557-9.036c5.19,0,8.554,4.069,8.554,9.036S412.619,77.273,407.429,77.273
		 M359.113,69.776h5.029v6.313c-1.377,0.769-3.428,1.185-5.572,1.185c-5,0-8.813-3.908-8.813-9.034c0-4.967,3.363-9.036,8.556-9.036
		c2.273,0,4.422,0.609,6.279,2.404l2.179-2.34c-1.763-1.825-4.295-2.946-8.458-2.946c-6.921,0-11.823,5.189-11.823,11.918
		c0,5.07,2.772,9.534,7.703,11.208h9.604c1.277-0.342,2.48-0.798,3.422-1.372V66.893h-8.105V69.776z"/>
	<polygon fill="#0F004E" points="0.834,20.284 1.098,19.641 5.122,20.139 5.129,20.124 1.95,17.546 2.238,16.839 6.293,17.262 
		6.302,17.252 3.093,14.743 3.358,14.102 7.336,17.304 7.072,17.957 2.929,17.53 2.922,17.544 6.165,20.178 5.899,20.825 	"/>
	<path fill="#0F004E" d="M7.541,12.294c-1.051-1-1.141-2.549-0.111-3.646c1.019-1.093,2.557-1.093,3.61-0.089
		c1.058,1.005,1.146,2.557,0.126,3.647C10.135,13.299,8.599,13.299,7.541,12.294 M10.561,9.075c-0.78-0.74-1.913-0.817-2.681,0.002
		c-0.77,0.823-0.633,1.96,0.147,2.704c0.78,0.738,1.916,0.819,2.681-0.004C11.479,10.956,11.335,9.819,10.561,9.075"/>
	<path fill="#0F004E" d="M12.994,4.171l1.511-0.834c1.097-0.606,1.738-0.096,2.032,0.448c0.296,0.549,0.173,1.298-0.432,1.727
		l2.284,1.299l-0.729,0.4L15.54,5.91l-0.648,0.359l1.032,1.904l-0.582,0.32L12.994,4.171z M14.611,5.755l0.765-0.423
		c0.458-0.253,0.86-0.62,0.543-1.203c-0.317-0.587-0.839-0.442-1.298-0.186l-0.762,0.418L14.611,5.755z"/>
	<polygon fill="#0F004E" points="19.918,1.097 20.562,0.939 21.558,5.13 23.739,4.602 23.881,5.211 21.059,5.89 	"/>
	<path fill="#0F004E" d="M26.757,0l1.71,0.089c2.063,0.097,2.485,1.676,2.441,2.588c-0.062,1.255-1.048,2.418-2.791,2.327
		L26.52,4.929L26.757,0z M27.213,4.334l0.837,0.039c1.112,0.059,2.101-0.514,2.155-1.735c0.031-0.622-0.231-1.854-1.818-1.927
		l-0.994-0.05L27.213,4.334z"/>
	<polygon fill="#0F004E" points="35.139,0.961 35.775,1.236 35.234,5.292 35.242,5.296 37.838,2.125 38.542,2.426 38.064,6.511 
		38.077,6.513 40.606,3.313 41.237,3.589 38.01,7.563 37.369,7.281 37.838,3.114 37.83,3.108 35.178,6.343 34.536,6.066 	"/>
	<polygon fill="#0F004E" points="44.528,6.091 45.038,6.521 41.945,10.333 41.428,9.911 	"/>
	<path fill="#0F004E" d="M48.246,9.598l1.015,1.383c1.231,1.673,0.296,3.005-0.433,3.55c-1.001,0.749-2.521,0.715-3.561-0.699
		l-0.95-1.298L48.246,9.598z M45.213,12.704l0.494,0.672c0.667,0.908,1.731,1.311,2.699,0.583c0.502-0.37,1.275-1.359,0.325-2.646
		l-0.588-0.805L45.213,12.704z"/>
	<polygon fill="#0F004E" points="52.809,17.132 53.852,20.135 53.27,20.342 52.441,17.97 51.068,18.454 51.833,20.667 
		51.246,20.872 50.479,18.664 49,19.189 49.868,21.68 49.284,21.885 48.189,18.764 	"/>
	<polygon fill="#FFFFFF" points="2.086,28.916 4.774,26.884 4.821,27.741 2.758,29.213 4.98,30.468 5.037,31.279 2.125,29.584 
		0.044,29.708 0,29.042 	"/>
	<path fill="#FFFFFF" d="M5.789,34.184l0.175,0.584l-4.05,3.469l-0.229-0.742l1.009-0.832L2.009,34.42l-1.303-0.108l-0.224-0.747
		L5.789,34.184z M3.178,36.259l1.872-1.55v-0.016l-2.418-0.219L3.178,36.259z"/>
	<path fill="#FFFFFF" d="M8.15,41.582c0.16-0.43,0.093-0.924-0.142-1.313c-0.577-0.939-1.704-1.096-2.652-0.509
		c-0.875,0.542-1.262,1.591-0.667,2.572c0.299,0.479,0.731,0.719,1.231,0.75l-0.062,0.705c-0.247-0.018-1.12-0.177-1.705-1.135
		c-0.816-1.337-0.213-2.846,0.835-3.5c1.292-0.803,2.765-0.487,3.561,0.804c0.335,0.556,0.484,1.264,0.25,1.877L8.15,41.582z"/>
	<polygon fill="#FFFFFF" points="10.447,42.82 10.923,43.284 9.523,44.764 11.354,46.528 12.75,45.05 13.233,45.516 9.855,49.078 
		9.378,48.62 10.923,46.981 9.092,45.22 7.547,46.85 7.069,46.386 	"/>
	<polygon fill="#FFFFFF" points="15.582,47.826 14.217,47.03 14.529,46.49 17.83,48.411 17.518,48.954 16.154,48.158 14.022,51.889 
		13.447,51.555 	"/>
	<path fill="#FFFFFF" d="M25.647,51.534c-0.224-0.396-0.649-0.664-1.092-0.729c-1.089-0.154-1.928,0.618-2.083,1.726
		c-0.147,1.027,0.404,2,1.532,2.163c0.554,0.082,1.012-0.103,1.357-0.474l0.495,0.502c-0.175,0.185-0.848,0.752-1.955,0.595
		c-1.537-0.224-2.302-1.659-2.132-2.887c0.216-1.518,1.406-2.456,2.897-2.24c0.633,0.09,1.269,0.43,1.584,1.004L25.647,51.534z"/>
	<polygon fill="#FFFFFF" points="28.097,50.553 28.75,50.476 28.978,52.513 31.499,52.227 31.269,50.19 31.926,50.118 
		32.477,55.018 31.813,55.093 31.564,52.852 29.046,53.138 29.293,55.379 28.638,55.457 	"/>
	<path fill="#FFFFFF" d="M35.346,49.052l0.556-0.217l3.721,3.835l-0.726,0.282l-0.891-0.963l-2.168,0.851l-0.018,1.313l-0.722,0.286
		L35.346,49.052z M37.567,51.534l-1.661-1.778l-0.008,0.007l-0.054,2.449L37.567,51.534z"/>
	<path fill="#FFFFFF" d="M39.159,47.239l1.411-0.996c1.023-0.726,1.71-0.281,2.065,0.224c0.358,0.516,0.317,1.265-0.239,1.762
		l2.41,1.04l-0.674,0.479l-2.254-1.063l-0.607,0.433l1.238,1.776l-0.546,0.384L39.159,47.239z M40.936,48.634l0.716-0.502
		c0.43-0.307,0.79-0.716,0.412-1.259c-0.386-0.549-0.889-0.345-1.319-0.044l-0.708,0.507L40.936,48.634z"/>
	<polygon fill="#FFFFFF" points="44.394,43.685 43.338,44.86 42.875,44.441 45.442,41.597 45.9,42.016 44.842,43.192 48.002,46.088 
		47.554,46.583 	"/>
	<polygon fill="#FFFFFF" points="46.379,40.207 47.938,37.436 48.476,37.743 47.25,39.932 48.514,40.658 49.659,38.618 
		50.198,38.926 49.058,40.963 50.424,41.744 51.709,39.45 52.253,39.758 50.638,42.634 	"/>
	<path fill="#FFFFFF" d="M48.699,35.564l0.484-1.666c0.35-1.208,1.162-1.306,1.751-1.128c0.595,0.175,1.028,0.788,0.899,1.53
		l2.531-0.714l-0.226,0.804l-2.421,0.595l-0.208,0.71l2.067,0.613l-0.188,0.641L48.699,35.564z M50.955,35.533l0.237-0.842
		c0.149-0.51,0.18-1.051-0.453-1.241c-0.636-0.188-0.904,0.286-1.059,0.796l-0.239,0.842L50.955,35.533z"/>
	<path fill="#FFFFFF" d="M53.767,30.573c0.373-0.209,0.564-0.615,0.587-1.009c0.026-0.44-0.211-0.997-0.749-1.032
		c-1.123-0.071-0.582,2.399-2.485,2.28c-0.569-0.038-1.331-0.579-1.257-1.761c0.031-0.534,0.173-1.038,0.644-1.38l0.456,0.572
		c-0.266,0.154-0.456,0.467-0.479,0.85c-0.047,0.738,0.378,0.988,0.685,1.009c1.231,0.077,0.644-2.392,2.405-2.284
		c0.942,0.061,1.46,0.861,1.398,1.805c-0.039,0.633-0.288,1.228-0.778,1.532L53.767,30.573z"/>
</g>
</svg>
