<?xml version="1.0" encoding="utf-8"?>
<!-- Generator: Adobe Illustrator 14.0.0, SVG Export Plug-In . SVG Version: 6.00 Build 43363)  -->
<!DOCTYPE svg PUBLIC "-//W3C//DTD SVG 1.1//EN" "http://www.w3.org/Graphics/SVG/1.1/DTD/svg11.dtd">
<svg version="1.1" id="Layer_1" xmlns="http://www.w3.org/2000/svg" xmlns:xlink="http://www.w3.org/1999/xlink" x="0px" y="0px"
	 width="326.512px" height="60.757px" viewBox="0 0 326.512 60.757" enable-background="new 0 0 326.512 60.757"
	 xml:space="preserve">
<g>
	<polygon fill="#FFFFFF" points="92.385,20.785 94.804,20.785 94.804,36.352 102.991,36.352 102.991,38.619 92.385,38.619 	"/>
	<g>
		<path fill="#FFFFFF" d="M109.06,20.785v10.931c0,0.554,0.075,1.129,0.227,1.725c0.151,0.597,0.403,1.148,0.755,1.65
			c0.354,0.505,0.814,0.914,1.386,1.234c0.57,0.319,1.276,0.479,2.115,0.479c0.84,0,1.545-0.159,2.117-0.479
			c0.569-0.32,1.033-0.729,1.384-1.234c0.353-0.502,0.604-1.054,0.756-1.65c0.151-0.596,0.227-1.171,0.227-1.725V20.785h2.417v11.31
			c0,1.039-0.176,1.985-0.528,2.832c-0.354,0.849-0.84,1.583-1.46,2.205c-0.622,0.622-1.353,1.099-2.191,1.434
			c-0.84,0.337-1.747,0.506-2.721,0.506c-0.974,0-1.881-0.169-2.72-0.506c-0.839-0.335-1.57-0.812-2.19-1.434
			c-0.623-0.622-1.108-1.356-1.462-2.205c-0.354-0.847-0.528-1.793-0.528-2.832v-11.31H109.06z"/>
		<polygon fill="#FFFFFF" points="130.343,29.248 124.349,20.785 127.446,20.785 132.081,27.636 136.665,20.785 139.687,20.785 
			133.744,29.222 140.292,38.618 137.119,38.618 132.006,30.884 126.867,38.618 123.869,38.618 		"/>
		<path fill="#FFFFFF" d="M146.136,20.785v10.931c0,0.554,0.075,1.129,0.226,1.725c0.151,0.597,0.403,1.148,0.755,1.65
			c0.354,0.505,0.815,0.914,1.387,1.234c0.57,0.319,1.276,0.479,2.114,0.479c0.84,0,1.545-0.159,2.117-0.479
			c0.569-0.32,1.033-0.729,1.384-1.234c0.353-0.502,0.604-1.054,0.756-1.65c0.151-0.596,0.227-1.171,0.227-1.725V20.785h2.417v11.31
			c0,1.039-0.177,1.985-0.529,2.832c-0.354,0.849-0.84,1.583-1.46,2.205c-0.622,0.622-1.353,1.099-2.191,1.434
			c-0.841,0.337-1.747,0.506-2.722,0.506c-0.974,0-1.881-0.169-2.72-0.506c-0.839-0.335-1.57-0.812-2.191-1.434
			c-0.622-0.622-1.107-1.356-1.46-2.205c-0.354-0.847-0.529-1.793-0.529-2.832v-11.31H146.136z"/>
		<path fill="#FFFFFF" d="M163.288,20.785h6.271c1.144,0,2.084,0.156,2.822,0.466s1.323,0.705,1.75,1.184
			c0.429,0.479,0.727,1.016,0.896,1.612c0.167,0.595,0.25,1.171,0.25,1.725c0,0.57-0.099,1.12-0.302,1.65
			c-0.2,0.528-0.489,1.007-0.868,1.436c-0.379,0.427-0.842,0.789-1.386,1.081c-0.545,0.294-1.155,0.476-1.826,0.543l5.063,8.136
			h-3.022l-4.534-7.859h-2.694v7.859h-2.418V20.785z M165.706,28.643h3.174c0.47,0,0.936-0.037,1.397-0.112
			c0.461-0.075,0.874-0.214,1.235-0.417c0.359-0.202,0.65-0.492,0.868-0.869s0.328-0.869,0.328-1.473
			c0-0.604-0.11-1.096-0.328-1.474c-0.218-0.377-0.509-0.667-0.868-0.869c-0.361-0.203-0.774-0.341-1.235-0.417
			c-0.462-0.076-0.928-0.112-1.397-0.112h-3.174V28.643z"/>
		<polygon fill="#FFFFFF" points="183.941,31.011 177.191,20.785 180.29,20.785 185.15,28.619 190.163,20.785 193.109,20.785 
			186.358,31.011 186.358,38.619 183.941,38.619 		"/>
		<path fill="#FFFFFF" d="M217.591,24.639c-0.503-0.656-1.141-1.158-1.914-1.512c-0.771-0.352-1.569-0.528-2.393-0.528
			c-1.007,0-1.919,0.188-2.733,0.566c-0.813,0.378-1.511,0.894-2.09,1.549c-0.579,0.655-1.029,1.424-1.349,2.304
			c-0.32,0.882-0.479,1.827-0.479,2.834c0,0.94,0.15,1.83,0.455,2.67c0.302,0.84,0.736,1.579,1.309,2.217
			c0.57,0.638,1.268,1.141,2.091,1.51c0.822,0.369,1.754,0.555,2.796,0.555c1.023,0,1.923-0.209,2.695-0.63
			c0.771-0.419,1.426-1.007,1.964-1.763l2.041,1.536c-0.135,0.186-0.369,0.45-0.705,0.794c-0.338,0.343-0.781,0.689-1.336,1.032
			c-0.554,0.345-1.222,0.646-2.001,0.907c-0.782,0.259-1.684,0.391-2.709,0.391c-1.41,0-2.683-0.27-3.816-0.808
			c-1.133-0.536-2.099-1.241-2.896-2.114c-0.798-0.874-1.407-1.861-1.826-2.96c-0.42-1.1-0.63-2.213-0.63-3.337
			c0-1.377,0.227-2.647,0.681-3.816c0.453-1.167,1.086-2.174,1.9-3.022c0.815-0.848,1.792-1.507,2.935-1.978
			c1.144-0.47,2.401-0.705,3.778-0.705c1.176,0,2.329,0.228,3.463,0.681c1.135,0.454,2.062,1.149,2.783,2.089L217.591,24.639z"/>
		<polygon fill="#FFFFFF" points="224.417,20.785 226.834,20.785 226.834,28.189 236.079,28.189 236.079,20.785 238.497,20.785 
			238.497,38.619 236.079,38.619 236.079,30.457 226.834,30.457 226.834,38.619 224.417,38.619 		"/>
		<path fill="#FFFFFF" d="M250.184,20.785h2.191l7.632,17.833h-2.822l-1.787-4.407h-8.489l-1.762,4.407h-2.822L250.184,20.785z
			 M254.516,32.095l-3.324-8.186h-0.052l-3.374,8.186H254.516z"/>
		<path fill="#FFFFFF" d="M263.835,20.785h6.271c1.143,0,2.084,0.156,2.821,0.466c0.739,0.31,1.323,0.705,1.75,1.184
			c0.429,0.479,0.727,1.016,0.896,1.612c0.167,0.595,0.251,1.171,0.251,1.725c0,0.57-0.1,1.12-0.302,1.65
			c-0.201,0.528-0.49,1.007-0.869,1.436c-0.377,0.427-0.841,0.789-1.385,1.081c-0.545,0.294-1.155,0.476-1.827,0.543l5.063,8.136
			h-3.022l-4.533-7.859h-2.694v7.859h-2.418V20.785z M266.253,28.643h3.173c0.47,0,0.937-0.037,1.397-0.112
			c0.461-0.075,0.874-0.214,1.235-0.417c0.361-0.202,0.651-0.492,0.868-0.869c0.218-0.377,0.328-0.869,0.328-1.473
			c0-0.604-0.11-1.096-0.328-1.474c-0.217-0.377-0.507-0.667-0.868-0.869c-0.361-0.203-0.774-0.341-1.235-0.417
			c-0.461-0.076-0.928-0.112-1.397-0.112h-3.173V28.643z"/>
		<polygon fill="#FFFFFF" points="284.01,23.052 278.266,23.052 278.266,20.785 292.17,20.785 292.17,23.052 286.427,23.052 
			286.427,38.619 284.01,38.619 		"/>
		<polygon fill="#FFFFFF" points="296.25,20.785 307.761,20.785 307.761,23.052 298.669,23.052 298.669,28.366 307.132,28.366 
			307.132,30.633 298.669,30.633 298.669,36.352 308.214,36.352 308.214,38.619 296.25,38.619 		"/>
		<path fill="#FFFFFF" d="M313.152,20.785h6.271c1.143,0,2.084,0.156,2.821,0.466c0.739,0.31,1.323,0.705,1.752,1.184
			c0.428,0.479,0.725,1.016,0.894,1.612c0.167,0.595,0.251,1.171,0.251,1.725c0,0.57-0.1,1.12-0.302,1.65
			c-0.201,0.528-0.49,1.007-0.869,1.436c-0.377,0.427-0.841,0.789-1.385,1.081c-0.545,0.294-1.155,0.476-1.827,0.543l5.063,8.136
			h-3.022l-4.533-7.859h-2.694v7.859h-2.418V20.785z M315.57,28.643h3.173c0.47,0,0.937-0.037,1.397-0.112
			c0.461-0.075,0.874-0.214,1.235-0.417c0.361-0.202,0.651-0.492,0.868-0.869c0.218-0.377,0.328-0.869,0.328-1.473
			c0-0.604-0.11-1.096-0.328-1.474c-0.217-0.377-0.507-0.667-0.868-0.869c-0.361-0.203-0.774-0.341-1.235-0.417
			c-0.461-0.076-0.928-0.112-1.397-0.112h-3.173V28.643z"/>
		<path fill="#778692" d="M101.1,50.484v5.536c-0.275,0.168-0.587,0.316-0.935,0.443c-0.349,0.126-0.712,0.235-1.087,0.325
			c-0.375,0.089-0.756,0.155-1.141,0.197c-0.387,0.042-0.749,0.063-1.087,0.063c-0.952,0-1.801-0.157-2.545-0.477
			c-0.747-0.315-1.375-0.745-1.888-1.284c-0.512-0.539-0.903-1.165-1.174-1.878c-0.27-0.714-0.405-1.467-0.405-2.26
			c0-0.836,0.147-1.613,0.437-2.332c0.291-0.718,0.692-1.343,1.206-1.872c0.513-0.527,1.129-0.943,1.848-1.244
			c0.718-0.301,1.506-0.452,2.363-0.452c1.036,0,1.881,0.13,2.537,0.389c0.656,0.26,1.205,0.616,1.648,1.071L99.8,47.867
			c-0.467-0.443-0.959-0.752-1.476-0.928c-0.52-0.174-1.063-0.262-1.633-0.262c-0.646,0-1.227,0.12-1.745,0.357
			c-0.518,0.238-0.962,0.559-1.333,0.959c-0.369,0.403-0.656,0.875-0.855,1.419c-0.201,0.546-0.302,1.125-0.302,1.738
			c0,0.634,0.112,1.223,0.333,1.768c0.223,0.546,0.528,1.018,0.92,1.419c0.391,0.402,0.851,0.715,1.379,0.943
			c0.529,0.228,1.104,0.341,1.729,0.341c0.539,0,1.05-0.049,1.53-0.149c0.481-0.101,0.891-0.246,1.229-0.436v-3.125h-2.488v-1.428
			H101.1z"/>
		<path fill="#778692" d="M107.363,45.537h3.948c0.719,0,1.312,0.098,1.775,0.292c0.466,0.197,0.835,0.445,1.104,0.746
			c0.269,0.303,0.456,0.641,0.563,1.016c0.106,0.375,0.158,0.736,0.158,1.086c0,0.36-0.062,0.706-0.189,1.038
			c-0.127,0.334-0.31,0.635-0.547,0.904c-0.238,0.27-0.528,0.498-0.872,0.683s-0.728,0.3-1.15,0.341l3.187,5.122h-1.901
			l-2.854-4.947h-1.697v4.947h-1.523V45.537z M108.886,50.484h1.997c0.297,0,0.59-0.022,0.88-0.07
			c0.291-0.048,0.551-0.137,0.778-0.263c0.226-0.127,0.41-0.309,0.545-0.546c0.139-0.239,0.208-0.547,0.208-0.929
			c0-0.381-0.069-0.689-0.208-0.927c-0.136-0.239-0.319-0.42-0.545-0.547c-0.228-0.128-0.487-0.217-0.778-0.264
			c-0.291-0.046-0.583-0.069-0.88-0.069h-1.997V50.484z"/>
		<path fill="#778692" d="M125.698,57.049c-0.858,0-1.646-0.15-2.363-0.452c-0.719-0.302-1.335-0.716-1.848-1.245
			c-0.513-0.527-0.915-1.152-1.205-1.87c-0.291-0.721-0.437-1.496-0.437-2.332c0-0.834,0.146-1.612,0.437-2.331
			c0.29-0.719,0.692-1.342,1.205-1.872c0.513-0.528,1.129-0.944,1.848-1.244c0.718-0.301,1.505-0.452,2.363-0.452
			c0.856,0,1.644,0.151,2.361,0.452c0.72,0.3,1.335,0.716,1.847,1.244c0.515,0.53,0.916,1.153,1.207,1.872
			c0.289,0.719,0.436,1.497,0.436,2.331c0,0.836-0.146,1.611-0.436,2.332c-0.292,0.718-0.692,1.343-1.207,1.87
			c-0.512,0.529-1.127,0.943-1.847,1.245C127.342,56.899,126.554,57.049,125.698,57.049 M125.698,55.622
			c0.645,0,1.225-0.118,1.744-0.356c0.517-0.236,0.96-0.557,1.332-0.96c0.37-0.401,0.656-0.873,0.856-1.419
			c0.201-0.545,0.3-1.122,0.3-1.736c0-0.613-0.1-1.192-0.3-1.736s-0.487-1.018-0.856-1.42c-0.371-0.4-0.814-0.721-1.332-0.959
			c-0.519-0.236-1.1-0.356-1.744-0.356c-0.646,0-1.228,0.12-1.746,0.356c-0.518,0.238-0.961,0.559-1.333,0.959
			c-0.368,0.402-0.656,0.876-0.856,1.42c-0.201,0.544-0.3,1.123-0.3,1.736c0,0.614,0.1,1.191,0.3,1.736
			c0.2,0.546,0.488,1.018,0.856,1.419c0.372,0.403,0.815,0.724,1.333,0.96C124.47,55.503,125.052,55.622,125.698,55.622"/>
		<path fill="#778692" d="M138.542,45.537v6.881c0,0.351,0.047,0.712,0.143,1.087c0.094,0.376,0.253,0.723,0.476,1.04
			c0.221,0.316,0.513,0.575,0.872,0.776c0.358,0.2,0.805,0.301,1.333,0.301c0.528,0,0.972-0.101,1.333-0.301
			c0.359-0.201,0.649-0.46,0.871-0.776c0.223-0.317,0.381-0.664,0.476-1.04c0.096-0.375,0.143-0.736,0.143-1.087v-6.881h1.522v7.12
			c0,0.656-0.109,1.251-0.333,1.784c-0.221,0.534-0.528,0.996-0.919,1.387c-0.393,0.393-0.852,0.692-1.38,0.905
			c-0.528,0.211-1.1,0.316-1.712,0.316c-0.614,0-1.184-0.105-1.712-0.316c-0.53-0.213-0.99-0.513-1.379-0.905
			c-0.392-0.391-0.699-0.853-0.92-1.387c-0.223-0.533-0.334-1.128-0.334-1.784v-7.12H138.542z"/>
		<path fill="#778692" d="M151.878,45.537h3.948c0.719,0,1.312,0.098,1.776,0.292c0.466,0.197,0.834,0.445,1.103,0.746
			c0.269,0.303,0.456,0.641,0.563,1.016c0.106,0.375,0.158,0.736,0.158,1.086c0,0.349-0.052,0.712-0.158,1.086
			c-0.107,0.376-0.294,0.714-0.563,1.017c-0.269,0.3-0.637,0.549-1.103,0.744c-0.464,0.194-1.057,0.294-1.776,0.294h-2.425v4.947
			h-1.523V45.537z M153.401,50.484h1.997c0.297,0,0.59-0.022,0.881-0.07c0.29-0.048,0.55-0.137,0.778-0.263
			c0.225-0.127,0.409-0.309,0.545-0.546c0.138-0.239,0.208-0.547,0.208-0.929c0-0.381-0.069-0.689-0.208-0.927
			c-0.136-0.239-0.32-0.42-0.545-0.547c-0.229-0.128-0.488-0.217-0.778-0.264c-0.292-0.046-0.584-0.069-0.881-0.069h-1.997V50.484z"
			/>
		<polygon fill="#778692" points="93.885,3.53 90.269,3.53 90.269,2.104 99.023,2.104 99.023,3.53 95.406,3.53 95.406,13.331 
			93.885,13.331 		"/>
		<polygon fill="#778692" points="104.128,2.104 105.651,2.104 105.651,6.765 111.47,6.765 111.47,2.104 112.992,2.104 
			112.992,13.331 111.47,13.331 111.47,8.192 105.651,8.192 105.651,13.331 104.128,13.331 		"/>
		<polygon fill="#778692" points="119.369,2.104 126.616,2.104 126.616,3.53 120.892,3.53 120.892,6.876 126.219,6.876 
			126.219,8.303 120.892,8.303 120.892,11.903 126.901,11.903 126.901,13.331 119.369,13.331 		"/>
		<polygon fill="#778692" points="8.693,9.947 9.149,9.49 12.091,12.424 13.635,10.876 14.063,11.304 12.064,13.308 		"/>
		<path fill="#778692" d="M15.829,4.263l1.348,2.588c0.068,0.131,0.157,0.258,0.267,0.38c0.108,0.123,0.237,0.221,0.382,0.297
			c0.146,0.076,0.305,0.117,0.48,0.122c0.174,0.005,0.361-0.044,0.56-0.148c0.2-0.103,0.347-0.228,0.442-0.373
			c0.095-0.146,0.154-0.302,0.176-0.463c0.021-0.163,0.013-0.324-0.026-0.484c-0.038-0.16-0.09-0.305-0.159-0.437l-1.347-2.588
			l0.572-0.298l1.395,2.677c0.128,0.247,0.204,0.493,0.225,0.737c0.021,0.245-0.003,0.479-0.075,0.702
			c-0.07,0.223-0.184,0.427-0.34,0.609c-0.158,0.184-0.353,0.334-0.583,0.455c-0.23,0.121-0.466,0.191-0.706,0.217
			c-0.24,0.023-0.472,0-0.696-0.071c-0.224-0.07-0.429-0.184-0.618-0.34c-0.188-0.158-0.347-0.36-0.474-0.606l-1.396-2.677
			L15.829,4.263z"/>
		<polygon fill="#778692" points="25.979,2.994 24.052,1.007 24.868,0.879 26.373,2.497 27.301,0.502 28.098,0.378 26.876,2.847 
			28.987,5.059 28.151,5.188 26.485,3.357 25.446,5.608 24.656,5.73 		"/>
		<path fill="#778692" d="M34.586,0.558l-0.488,2.876c-0.025,0.146-0.031,0.301-0.018,0.464c0.013,0.164,0.055,0.32,0.125,0.468
			c0.071,0.148,0.174,0.277,0.311,0.387c0.136,0.108,0.315,0.182,0.535,0.22c0.221,0.038,0.414,0.027,0.579-0.031
			c0.164-0.058,0.304-0.146,0.42-0.263c0.115-0.118,0.205-0.251,0.272-0.401c0.066-0.15,0.112-0.298,0.136-0.443l0.488-2.877
			l0.637,0.107l-0.506,2.977c-0.046,0.273-0.135,0.515-0.266,0.722c-0.13,0.207-0.292,0.379-0.483,0.514
			c-0.191,0.137-0.405,0.229-0.641,0.281c-0.236,0.05-0.482,0.054-0.738,0.011c-0.257-0.043-0.488-0.128-0.694-0.254
			C34.05,5.19,33.88,5.032,33.744,4.841c-0.136-0.192-0.232-0.407-0.286-0.646c-0.056-0.238-0.06-0.496-0.013-0.77l0.504-2.977
			L34.586,0.558z"/>
		<path fill="#778692" d="M43.519,3.158l1.478,0.787c0.269,0.143,0.471,0.297,0.607,0.463c0.134,0.166,0.222,0.333,0.264,0.499
			c0.04,0.167,0.043,0.331,0.008,0.491c-0.035,0.162-0.087,0.308-0.157,0.439c-0.071,0.134-0.164,0.251-0.277,0.351
			c-0.115,0.1-0.242,0.175-0.385,0.229c-0.143,0.055-0.297,0.081-0.462,0.082c-0.166,0.001-0.333-0.034-0.499-0.102l0.172,2.553
			l-0.712-0.38l-0.082-2.42l-0.635-0.337l-0.986,1.852L41.282,7.36L43.519,3.158z M43.103,5.313l0.748,0.398
			c0.111,0.06,0.225,0.108,0.344,0.149s0.232,0.06,0.343,0.058c0.11-0.003,0.215-0.035,0.314-0.096
			c0.099-0.062,0.187-0.164,0.262-0.306c0.076-0.143,0.113-0.272,0.108-0.389c-0.003-0.115-0.036-0.22-0.096-0.313
			c-0.059-0.093-0.139-0.177-0.238-0.252c-0.1-0.076-0.204-0.143-0.315-0.203L43.824,3.96L43.103,5.313z"/>
		<polygon fill="#778692" points="49.888,10.944 50.565,7.744 51.146,8.333 50.569,10.726 52.998,10.209 53.549,10.769 
			50.341,11.403 48.896,12.83 48.442,12.37 		"/>
		<path fill="#778692" d="M4.789,25.713c0.202-0.09,0.373-0.225,0.512-0.403c0.139-0.179,0.234-0.375,0.285-0.59
			c0.063-0.262,0.07-0.51,0.022-0.745c-0.048-0.235-0.139-0.447-0.273-0.639c-0.133-0.19-0.305-0.354-0.515-0.492
			c-0.209-0.138-0.444-0.238-0.706-0.301c-0.245-0.058-0.485-0.074-0.722-0.047c-0.237,0.026-0.455,0.095-0.657,0.203
			c-0.2,0.109-0.375,0.259-0.521,0.45c-0.147,0.19-0.253,0.42-0.317,0.691c-0.063,0.267-0.064,0.513-0.003,0.74
			c0.061,0.226,0.173,0.433,0.335,0.618l-0.524,0.436c-0.04-0.046-0.094-0.125-0.163-0.232c-0.068-0.109-0.13-0.246-0.186-0.411
			c-0.054-0.165-0.093-0.357-0.111-0.576c-0.019-0.219,0.003-0.462,0.066-0.728c0.087-0.367,0.236-0.68,0.445-0.941
			c0.21-0.261,0.453-0.468,0.729-0.621c0.277-0.153,0.57-0.25,0.882-0.291c0.311-0.041,0.613-0.027,0.905,0.043
			c0.358,0.084,0.674,0.223,0.948,0.413c0.276,0.189,0.498,0.417,0.668,0.68c0.169,0.264,0.28,0.559,0.332,0.885
			c0.051,0.325,0.035,0.667-0.051,1.024c-0.073,0.305-0.203,0.592-0.391,0.857c-0.188,0.267-0.426,0.464-0.715,0.594L4.789,25.713z"
			/>
		<polygon fill="#778692" points="5.395,30.309 5.442,30.953 3.47,31.097 3.651,33.557 5.623,33.414 5.669,34.057 0.923,34.405 
			0.875,33.76 3.048,33.602 2.867,31.141 0.694,31.301 0.647,30.656 		"/>
		<path fill="#778692" d="M7.197,39.524l0.218,0.542l-3.65,3.672L3.483,43.04l0.913-0.882l-0.85-2.102l-1.267,0.005l-0.283-0.699
			L7.197,39.524z M4.831,41.727l1.692-1.641L6.52,40.073l-2.364-0.017L4.831,41.727z"/>
		<path fill="#778692" d="M10.069,44.924l1.044,1.309c0.19,0.237,0.314,0.459,0.372,0.666c0.059,0.206,0.073,0.393,0.045,0.562
			c-0.029,0.17-0.091,0.32-0.188,0.456c-0.097,0.134-0.202,0.247-0.318,0.339c-0.119,0.096-0.25,0.166-0.394,0.212
			c-0.144,0.046-0.292,0.066-0.444,0.058c-0.152-0.008-0.305-0.044-0.456-0.108c-0.153-0.065-0.292-0.162-0.418-0.29l-0.854,2.41
			l-0.503-0.631l0.885-2.254l-0.449-0.563L6.75,48.397l-0.401-0.504L10.069,44.924z M8.832,46.737l0.528,0.662
			c0.078,0.098,0.164,0.189,0.257,0.273c0.092,0.084,0.19,0.146,0.292,0.188c0.103,0.042,0.211,0.055,0.327,0.037
			c0.114-0.018,0.235-0.076,0.361-0.178c0.126-0.101,0.21-0.204,0.253-0.313s0.055-0.217,0.037-0.326
			c-0.018-0.107-0.058-0.218-0.119-0.326s-0.131-0.213-0.209-0.311l-0.528-0.662L8.832,46.737z"/>
		<polygon fill="#778692" points="15.127,50.946 13.894,50.037 14.252,49.548 17.24,51.751 16.88,52.239 15.646,51.328 
			13.181,54.672 12.661,54.29 		"/>
		<polygon fill="#778692" points="20.364,53.397 23.234,54.494 23.018,55.059 20.751,54.192 20.244,55.518 22.354,56.324 
			22.139,56.889 20.028,56.083 19.484,57.509 21.865,58.418 21.648,58.984 18.665,57.843 		"/>
		<path fill="#778692" d="M27.02,55.338l1.668,0.147c0.303,0.027,0.549,0.091,0.738,0.19c0.19,0.101,0.335,0.219,0.438,0.357
			c0.103,0.137,0.169,0.287,0.199,0.449c0.031,0.162,0.04,0.317,0.027,0.465c-0.014,0.152-0.054,0.295-0.12,0.431
			c-0.066,0.136-0.154,0.257-0.265,0.362c-0.11,0.104-0.242,0.189-0.394,0.254c-0.152,0.065-0.318,0.1-0.498,0.102l1.154,2.282
			l-0.804-0.071l-1.02-2.195l-0.716-0.063l-0.186,2.089l-0.644-0.058L27.02,55.338z M27.478,57.485l0.844,0.075
			c0.125,0.011,0.25,0.012,0.375,0.003c0.124-0.009,0.236-0.037,0.337-0.081c0.101-0.045,0.185-0.116,0.252-0.21
			c0.067-0.097,0.108-0.225,0.121-0.385c0.015-0.161-0.003-0.295-0.052-0.399c-0.048-0.106-0.119-0.19-0.21-0.252
			c-0.091-0.063-0.198-0.109-0.318-0.14c-0.122-0.032-0.245-0.053-0.369-0.063l-0.843-0.075L27.478,57.485z"/>
		<path fill="#778692" d="M46.934,52.437l1.243,1.989c-0.061,0.124-0.139,0.246-0.237,0.371c-0.097,0.123-0.202,0.243-0.317,0.36
			c-0.115,0.116-0.237,0.226-0.367,0.328c-0.129,0.101-0.254,0.189-0.376,0.266c-0.341,0.215-0.684,0.349-1.022,0.401
			c-0.339,0.053-0.662,0.041-0.967-0.038c-0.306-0.078-0.588-0.216-0.845-0.412c-0.257-0.196-0.475-0.437-0.652-0.722
			c-0.188-0.3-0.31-0.612-0.368-0.936c-0.057-0.324-0.052-0.639,0.013-0.944c0.066-0.306,0.193-0.593,0.385-0.862
			c0.19-0.271,0.441-0.501,0.748-0.693c0.373-0.232,0.706-0.377,1-0.431c0.293-0.054,0.572-0.049,0.833,0.015l-0.128,0.658
			c-0.266-0.056-0.513-0.057-0.738-0.002c-0.225,0.054-0.441,0.145-0.646,0.272c-0.232,0.146-0.414,0.318-0.546,0.521
			c-0.134,0.202-0.221,0.417-0.264,0.645c-0.042,0.228-0.04,0.462,0.011,0.703c0.051,0.241,0.144,0.471,0.283,0.691
			c0.142,0.229,0.314,0.416,0.516,0.561c0.203,0.147,0.419,0.247,0.65,0.305c0.23,0.057,0.466,0.066,0.708,0.028
			c0.241-0.036,0.474-0.125,0.698-0.265c0.193-0.122,0.366-0.254,0.517-0.398c0.15-0.144,0.265-0.288,0.344-0.433l-0.702-1.124
			l-0.895,0.56l-0.32-0.514L46.934,52.437z"/>
		<path fill="#778692" d="M48.88,47.92l1.096-1.266c0.2-0.229,0.396-0.393,0.587-0.488c0.191-0.095,0.373-0.144,0.544-0.146
			c0.171-0.002,0.333,0.032,0.481,0.102c0.15,0.07,0.281,0.154,0.392,0.25c0.116,0.101,0.209,0.218,0.281,0.35
			c0.071,0.133,0.117,0.275,0.138,0.426c0.021,0.151,0.013,0.308-0.023,0.47c-0.036,0.161-0.105,0.315-0.209,0.463l2.526,0.399
			l-0.528,0.609l-2.378-0.458l-0.471,0.545l1.586,1.372l-0.422,0.489L48.88,47.92z M50.889,48.806l0.554-0.642
			c0.083-0.095,0.156-0.195,0.222-0.302c0.065-0.105,0.108-0.214,0.131-0.321c0.022-0.108,0.015-0.217-0.024-0.327
			s-0.118-0.218-0.24-0.323c-0.123-0.106-0.24-0.17-0.354-0.192c-0.115-0.021-0.224-0.014-0.327,0.024
			c-0.104,0.037-0.205,0.097-0.3,0.176c-0.096,0.081-0.185,0.168-0.267,0.263l-0.554,0.641L50.889,48.806z"/>
		<path fill="#778692" d="M58.433,42.168c-0.143,0.333-0.333,0.615-0.57,0.846c-0.237,0.229-0.502,0.401-0.793,0.512
			c-0.292,0.112-0.603,0.164-0.931,0.157c-0.329-0.006-0.656-0.079-0.982-0.219c-0.325-0.14-0.603-0.326-0.835-0.56
			c-0.231-0.232-0.408-0.493-0.528-0.782c-0.121-0.288-0.18-0.597-0.177-0.928c0.002-0.329,0.075-0.662,0.218-0.996
			c0.142-0.334,0.333-0.615,0.571-0.846c0.237-0.229,0.501-0.4,0.793-0.512c0.292-0.111,0.603-0.164,0.931-0.156
			c0.328,0.006,0.655,0.079,0.981,0.218c0.325,0.139,0.604,0.327,0.835,0.561c0.232,0.232,0.408,0.493,0.528,0.782
			c0.12,0.287,0.18,0.597,0.177,0.927S58.576,41.834,58.433,42.168 M57.877,41.931c0.108-0.253,0.158-0.499,0.152-0.74
			s-0.058-0.469-0.152-0.68s-0.231-0.401-0.41-0.571c-0.179-0.168-0.387-0.304-0.626-0.406c-0.238-0.103-0.481-0.16-0.728-0.173
			c-0.246-0.012-0.477,0.021-0.695,0.097C55.2,39.535,55,39.655,54.822,39.817c-0.18,0.162-0.323,0.368-0.431,0.62
			c-0.107,0.251-0.159,0.498-0.152,0.739c0.006,0.241,0.057,0.468,0.151,0.68c0.095,0.212,0.232,0.401,0.411,0.571
			c0.178,0.169,0.387,0.304,0.626,0.407c0.239,0.102,0.481,0.159,0.727,0.173c0.246,0.012,0.478-0.021,0.696-0.098
			c0.218-0.078,0.417-0.196,0.597-0.358C57.625,42.389,57.769,42.183,57.877,41.931"/>
		<path fill="#778692" d="M55.799,33.546l2.908,0.232c0.148,0.013,0.302,0.004,0.464-0.023c0.162-0.027,0.313-0.083,0.455-0.165
			c0.142-0.083,0.261-0.197,0.357-0.344c0.098-0.144,0.155-0.329,0.173-0.552c0.018-0.225-0.009-0.415-0.083-0.574
			c-0.072-0.157-0.172-0.29-0.298-0.395c-0.126-0.104-0.268-0.183-0.424-0.235c-0.155-0.054-0.306-0.085-0.454-0.098l-2.909-0.232
			l0.051-0.645l3.01,0.242c0.276,0.022,0.524,0.089,0.743,0.201c0.218,0.11,0.403,0.257,0.555,0.436
			c0.152,0.179,0.264,0.384,0.335,0.613c0.071,0.23,0.097,0.476,0.076,0.733c-0.021,0.26-0.085,0.498-0.193,0.714
			c-0.106,0.217-0.25,0.4-0.428,0.553s-0.384,0.267-0.617,0.342c-0.233,0.076-0.489,0.103-0.766,0.081l-3.009-0.241L55.799,33.546z"
			/>
		<path fill="#778692" d="M55.73,26.515l-0.339-1.64c-0.062-0.298-0.072-0.553-0.03-0.763c0.041-0.209,0.112-0.383,0.214-0.522
			c0.102-0.137,0.226-0.244,0.374-0.32c0.146-0.076,0.292-0.129,0.436-0.159c0.145-0.029,0.3-0.039,0.465-0.028
			c0.165,0.012,0.321,0.061,0.47,0.147c0.148,0.084,0.283,0.216,0.404,0.393c0.122,0.177,0.212,0.414,0.274,0.712l0.208,1.007
			l2.054-0.426l0.132,0.633L55.73,26.515z M57.654,25.457l-0.171-0.829c-0.024-0.124-0.061-0.243-0.105-0.36
			c-0.044-0.116-0.103-0.216-0.175-0.3c-0.072-0.083-0.164-0.144-0.274-0.18s-0.245-0.039-0.402-0.006
			c-0.158,0.033-0.281,0.088-0.368,0.165c-0.087,0.078-0.147,0.17-0.18,0.274c-0.034,0.105-0.047,0.22-0.042,0.346
			c0.006,0.125,0.021,0.248,0.046,0.372l0.171,0.829L57.654,25.457z"/>
	</g>
</g>
</svg>
