<?xml version="1.0" encoding="utf-8"?>
<!-- Generator: Adobe Illustrator 14.0.0, SVG Export Plug-In . SVG Version: 6.00 Build 43363)  -->
<!DOCTYPE svg PUBLIC "-//W3C//DTD SVG 1.1//EN" "http://www.w3.org/Graphics/SVG/1.1/DTD/svg11.dtd">
<svg version="1.1" id="Layer_1" xmlns="http://www.w3.org/2000/svg" xmlns:xlink="http://www.w3.org/1999/xlink" x="0px" y="0px"
	 width="320.768px" height="64px" viewBox="0 0 320.768 64" enable-background="new 0 0 320.768 64" xml:space="preserve">
<g>
	<polygon fill="#231C34" points="73.884,22.417 76.524,22.417 76.524,39.409 85.459,39.409 85.459,41.882 73.884,41.882 	"/>
	<path fill="#231C34" d="M91.52,22.417V34.35c0,0.604,0.081,1.233,0.246,1.881c0.165,0.653,0.443,1.254,0.826,1.802
		c0.385,0.551,0.889,0.998,1.512,1.347c0.622,0.348,1.393,0.522,2.309,0.522c0.917,0,1.686-0.175,2.31-0.522
		c0.622-0.349,1.128-0.796,1.512-1.347c0.385-0.548,0.66-1.149,0.825-1.802c0.165-0.648,0.249-1.277,0.249-1.881V22.417h2.638
		v12.345c0,1.136-0.193,2.169-0.578,3.092c-0.385,0.927-0.917,1.728-1.594,2.406c-0.679,0.679-1.477,1.2-2.392,1.567
		c-0.917,0.366-1.907,0.55-2.97,0.55c-1.063,0-2.053-0.184-2.968-0.55c-0.917-0.367-1.715-0.889-2.393-1.567
		c-0.679-0.678-1.209-1.479-1.594-2.406c-0.386-0.923-0.576-1.956-0.576-3.092V22.417H91.52z"/>
	<polygon fill="#231C34" points="114.185,31.655 107.642,22.418 111.023,22.418 116.083,29.896 121.086,22.418 124.384,22.418 
		117.897,31.626 125.044,41.883 121.581,41.883 116,33.443 110.392,41.883 107.119,41.883 	"/>
	<path fill="#231C34" d="M130.857,22.417V34.35c0,0.604,0.081,1.233,0.246,1.881c0.165,0.653,0.443,1.254,0.827,1.802
		c0.385,0.551,0.889,0.998,1.512,1.347c0.623,0.348,1.393,0.522,2.309,0.522c0.917,0,1.686-0.175,2.31-0.522
		c0.622-0.349,1.127-0.796,1.512-1.347c0.385-0.548,0.659-1.149,0.825-1.802c0.165-0.648,0.249-1.277,0.249-1.881V22.417h2.638
		v12.345c0,1.136-0.193,2.169-0.578,3.092c-0.385,0.927-0.917,1.728-1.595,2.406c-0.678,0.679-1.477,1.2-2.392,1.567
		c-0.917,0.366-1.907,0.55-2.97,0.55c-1.063,0-2.053-0.184-2.968-0.55c-0.917-0.367-1.715-0.889-2.393-1.567
		c-0.679-0.678-1.209-1.479-1.594-2.406c-0.386-0.923-0.576-1.956-0.576-3.092V22.417H130.857z"/>
	<path fill="#231C34" d="M149.014,22.418h6.846c1.247,0,2.272,0.17,3.079,0.508c0.806,0.339,1.444,0.77,1.91,1.292
		c0.468,0.524,0.792,1.107,0.976,1.759c0.182,0.651,0.275,1.28,0.275,1.883c0,0.624-0.108,1.224-0.33,1.801
		c-0.218,0.577-0.535,1.1-0.947,1.568c-0.413,0.466-0.917,0.861-1.512,1.18c-0.595,0.322-1.261,0.521-1.995,0.593l5.525,8.879
		h-3.297l-4.949-8.578h-2.941v8.578h-2.64V22.418z M151.654,30.995h3.463c0.512,0,1.021-0.039,1.524-0.124
		c0.505-0.081,0.955-0.231,1.349-0.452c0.395-0.222,0.711-0.539,0.948-0.949c0.238-0.412,0.357-0.949,0.357-1.609
		c0-0.66-0.119-1.194-0.357-1.608c-0.237-0.411-0.554-0.729-0.948-0.949c-0.394-0.22-0.844-0.371-1.349-0.454
		c-0.502-0.083-1.012-0.122-1.524-0.122h-3.463V30.995z"/>
	<polygon fill="#231C34" points="171.556,33.58 164.19,22.417 167.572,22.417 172.875,30.968 178.349,22.417 181.565,22.417 
		174.196,33.58 174.196,41.882 171.556,41.882 	"/>
	<path fill="#231C34" d="M206.027,26.625c-0.55-0.715-1.246-1.265-2.09-1.65c-0.843-0.384-1.714-0.578-2.611-0.578
		c-1.1,0-2.094,0.206-2.984,0.619c-0.887,0.412-1.648,0.976-2.28,1.689c-0.632,0.717-1.124,1.555-1.472,2.517
		c-0.349,0.961-0.521,1.994-0.521,3.093c0,1.027,0.165,1.997,0.495,2.915c0.329,0.917,0.806,1.723,1.429,2.419
		c0.625,0.697,1.386,1.245,2.283,1.649c0.897,0.402,1.914,0.604,3.051,0.604c1.117,0,2.099-0.228,2.941-0.687
		c0.843-0.457,1.558-1.1,2.145-1.924l2.229,1.676c-0.148,0.202-0.404,0.492-0.771,0.866c-0.368,0.376-0.853,0.752-1.458,1.128
		c-0.604,0.375-1.334,0.704-2.185,0.99c-0.854,0.283-1.838,0.425-2.956,0.425c-1.54,0-2.93-0.293-4.165-0.88
		c-1.237-0.586-2.291-1.356-3.162-2.309c-0.87-0.954-1.535-2.031-1.993-3.23c-0.458-1.201-0.687-2.415-0.687-3.643
		c0-1.502,0.246-2.89,0.741-4.166c0.495-1.272,1.186-2.372,2.076-3.298c0.889-0.925,1.955-1.645,3.203-2.159
		c1.247-0.513,2.621-0.77,4.123-0.77c1.284,0,2.543,0.25,3.779,0.744c1.24,0.496,2.252,1.254,3.038,2.28L206.027,26.625z"/>
	<polygon fill="#231C34" points="212.911,22.417 215.551,22.417 215.551,30.499 225.639,30.499 225.639,22.417 228.28,22.417 
		228.28,41.882 225.639,41.882 225.639,32.976 215.551,32.976 215.551,41.882 212.911,41.882 	"/>
	<path fill="#231C34" d="M240.472,22.418h2.39l8.331,19.464h-3.079l-1.952-4.811h-9.264l-1.924,4.811h-3.081L240.472,22.418z
		 M245.2,34.763l-3.629-8.935h-0.056l-3.682,8.935H245.2z"/>
	<path fill="#231C34" d="M254.806,22.418h6.847c1.247,0,2.273,0.17,3.079,0.508c0.806,0.339,1.443,0.77,1.91,1.292
		c0.468,0.524,0.792,1.107,0.976,1.759c0.182,0.651,0.274,1.28,0.274,1.883c0,0.624-0.108,1.224-0.331,1.801
		c-0.217,0.577-0.533,1.1-0.946,1.568c-0.413,0.466-0.916,0.861-1.512,1.18c-0.595,0.322-1.262,0.521-1.995,0.593l5.526,8.879
		h-3.298l-4.949-8.578h-2.94v8.578h-2.641V22.418z M257.447,30.995h3.463c0.513,0,1.022-0.039,1.524-0.124
		c0.505-0.081,0.954-0.231,1.349-0.452c0.395-0.222,0.711-0.539,0.949-0.949c0.237-0.412,0.356-0.949,0.356-1.609
		c0-0.66-0.119-1.194-0.356-1.608c-0.238-0.411-0.555-0.729-0.949-0.949s-0.844-0.371-1.349-0.454
		c-0.502-0.083-1.012-0.122-1.524-0.122h-3.463V30.995z"/>
	<polygon fill="#231C34" points="276.263,24.893 269.995,24.893 269.995,22.418 285.169,22.418 285.169,24.893 278.902,24.893 
		278.902,41.882 276.263,41.882 	"/>
	<polygon fill="#231C34" points="289.059,22.417 301.622,22.417 301.622,24.893 291.699,24.893 291.699,30.692 300.937,30.692 
		300.937,33.167 291.699,33.167 291.699,39.409 302.117,39.409 302.117,41.882 289.059,41.882 	"/>
	<path fill="#231C34" d="M306.941,22.418h6.846c1.247,0,2.273,0.17,3.079,0.508c0.806,0.339,1.443,0.77,1.91,1.292
		c0.468,0.524,0.792,1.107,0.976,1.759c0.182,0.651,0.274,1.28,0.274,1.883c0,0.624-0.108,1.224-0.33,1.801
		c-0.219,0.577-0.534,1.1-0.947,1.568c-0.412,0.466-0.916,0.861-1.512,1.18c-0.595,0.322-1.262,0.521-1.995,0.593l5.526,8.879
		h-3.298l-4.948-8.578h-2.941v8.578h-2.64V22.418z M309.581,30.995h3.463c0.513,0,1.022-0.039,1.524-0.124
		c0.505-0.081,0.955-0.231,1.349-0.452c0.395-0.222,0.712-0.539,0.949-0.949c0.237-0.412,0.356-0.949,0.356-1.609
		c0-0.66-0.119-1.194-0.356-1.608c-0.237-0.411-0.555-0.729-0.949-0.949c-0.394-0.22-0.844-0.371-1.349-0.454
		c-0.502-0.083-1.012-0.122-1.524-0.122h-3.463V30.995z"/>
	<path fill="#778692" d="M83.396,54.835v6.042c-0.3,0.184-0.64,0.346-1.021,0.484c-0.38,0.137-0.776,0.256-1.187,0.354
		c-0.409,0.097-0.825,0.17-1.245,0.218C79.521,61.978,79.127,62,78.758,62c-1.04,0-1.966-0.171-2.778-0.52
		c-0.815-0.346-1.5-0.812-2.061-1.402c-0.559-0.589-0.985-1.271-1.282-2.051c-0.293-0.777-0.441-1.6-0.441-2.466
		c0-0.91,0.16-1.759,0.476-2.545c0.318-0.783,0.756-1.465,1.316-2.042s1.231-1.03,2.017-1.359c0.784-0.328,1.644-0.493,2.58-0.493
		c1.131,0,2.053,0.143,2.768,0.423c0.717,0.285,1.315,0.674,1.801,1.17l-1.177,1.263c-0.508-0.485-1.045-0.822-1.608-1.012
		c-0.566-0.19-1.161-0.285-1.783-0.285c-0.705,0-1.339,0.13-1.906,0.388c-0.564,0.262-1.048,0.611-1.453,1.05
		c-0.403,0.439-0.715,0.954-0.934,1.548c-0.219,0.595-0.329,1.226-0.329,1.896c0,0.693,0.121,1.335,0.363,1.929
		c0.243,0.597,0.576,1.113,1.003,1.551c0.428,0.439,0.93,0.78,1.507,1.029c0.576,0.248,1.206,0.371,1.887,0.371
		c0.588,0,1.145-0.053,1.67-0.162c0.525-0.11,0.973-0.27,1.34-0.477v-3.409h-2.716v-1.559H83.396z"/>
	<path fill="#778692" d="M89.667,49.435h4.311c0.784,0,1.431,0.106,1.938,0.32c0.509,0.212,0.911,0.484,1.204,0.813
		c0.294,0.33,0.499,0.698,0.616,1.107c0.114,0.411,0.171,0.805,0.171,1.187c0,0.394-0.068,0.77-0.207,1.133
		c-0.139,0.365-0.339,0.693-0.598,0.986c-0.26,0.296-0.576,0.545-0.952,0.746c-0.374,0.201-0.793,0.325-1.254,0.371l3.479,5.591
		h-2.076l-3.116-5.4H91.33v5.4h-1.663V49.435z M91.33,54.835h2.18c0.323,0,0.642-0.024,0.961-0.078
		c0.317-0.052,0.6-0.147,0.849-0.287c0.246-0.137,0.446-0.336,0.595-0.594c0.152-0.263,0.227-0.599,0.227-1.015
		c0-0.417-0.075-0.754-0.227-1.012c-0.149-0.26-0.349-0.459-0.595-0.599c-0.249-0.138-0.531-0.234-0.849-0.285
		c-0.319-0.051-0.638-0.077-0.961-0.077h-2.18V54.835z"/>
	<path fill="#778692" d="M109.114,62c-0.936,0-1.796-0.163-2.58-0.493c-0.785-0.328-1.456-0.782-2.016-1.358
		c-0.562-0.578-1-1.258-1.317-2.043c-0.316-0.784-0.476-1.633-0.476-2.545c0-0.908,0.16-1.76,0.476-2.545
		c0.317-0.781,0.755-1.463,1.317-2.042c0.561-0.577,1.231-1.029,2.016-1.357c0.784-0.328,1.644-0.493,2.58-0.493
		c0.935,0,1.795,0.165,2.578,0.493c0.786,0.328,1.457,0.78,2.017,1.357c0.561,0.579,0.997,1.261,1.316,2.042
		c0.315,0.785,0.476,1.637,0.476,2.545c0,0.912-0.161,1.761-0.476,2.545c-0.319,0.785-0.755,1.465-1.316,2.043
		c-0.56,0.576-1.231,1.03-2.017,1.358C110.909,61.837,110.049,62,109.114,62 M109.114,60.441c0.703,0,1.337-0.128,1.904-0.388
		c0.565-0.259,1.049-0.608,1.454-1.048c0.403-0.438,0.715-0.954,0.934-1.549c0.219-0.596,0.329-1.225,0.329-1.896
		c0-0.668-0.109-1.301-0.329-1.895c-0.219-0.594-0.531-1.11-0.934-1.55c-0.405-0.438-0.889-0.788-1.454-1.048
		c-0.566-0.258-1.201-0.388-1.904-0.388c-0.706,0-1.338,0.13-1.905,0.388c-0.565,0.26-1.049,0.61-1.453,1.048
		c-0.403,0.439-0.718,0.956-0.935,1.55c-0.219,0.594-0.328,1.227-0.328,1.895c0,0.672,0.109,1.301,0.328,1.896
		c0.217,0.595,0.531,1.111,0.935,1.549c0.404,0.439,0.888,0.789,1.453,1.048C107.776,60.313,108.408,60.441,109.114,60.441"/>
	<path fill="#778692" d="M122.569,49.435v7.511c0,0.382,0.053,0.777,0.157,1.187c0.102,0.409,0.276,0.788,0.519,1.135
		c0.242,0.346,0.559,0.628,0.952,0.847c0.391,0.22,0.877,0.328,1.453,0.328c0.578,0,1.062-0.108,1.456-0.328
		c0.391-0.219,0.707-0.501,0.952-0.847c0.242-0.347,0.413-0.726,0.519-1.135c0.104-0.409,0.157-0.805,0.157-1.187v-7.511h1.659
		v7.771c0,0.716-0.12,1.366-0.363,1.948c-0.241,0.584-0.577,1.087-1.003,1.514c-0.428,0.429-0.93,0.756-1.507,0.987
		c-0.576,0.231-1.199,0.346-1.869,0.346c-0.669,0-1.291-0.114-1.868-0.346c-0.578-0.231-1.081-0.559-1.506-0.987
		c-0.427-0.427-0.763-0.93-1.004-1.514c-0.243-0.582-0.365-1.232-0.365-1.948v-7.771H122.569z"/>
	<path fill="#778692" d="M136.561,49.435h4.311c0.783,0,1.431,0.106,1.938,0.32c0.509,0.212,0.911,0.484,1.204,0.813
		c0.294,0.33,0.499,0.698,0.615,1.107c0.115,0.411,0.172,0.805,0.172,1.187c0,0.381-0.057,0.778-0.172,1.185
		c-0.117,0.41-0.321,0.781-0.615,1.107c-0.293,0.329-0.695,0.603-1.204,0.815c-0.506,0.213-1.154,0.319-1.938,0.319h-2.647v5.4
		h-1.663V49.435z M138.224,54.835h2.18c0.324,0,0.642-0.024,0.962-0.078c0.316-0.052,0.599-0.147,0.848-0.287
		c0.246-0.137,0.446-0.336,0.595-0.594c0.152-0.263,0.227-0.599,0.227-1.015c0-0.417-0.075-0.754-0.227-1.012
		c-0.149-0.26-0.35-0.459-0.595-0.599c-0.249-0.138-0.532-0.234-0.848-0.285c-0.32-0.051-0.638-0.077-0.962-0.077h-2.18V54.835z"/>
	<polygon fill="#778692" points="75.521,3.583 71.574,3.583 71.574,2.027 81.129,2.027 81.129,3.583 77.182,3.583 77.182,14.281 
		75.521,14.281 	"/>
	<polygon fill="#778692" points="86.137,2.027 87.799,2.027 87.799,7.115 94.151,7.115 94.151,2.027 95.811,2.027 95.811,14.281 
		94.151,14.281 94.151,8.673 87.799,8.673 87.799,14.281 86.137,14.281 	"/>
	<polygon fill="#778692" points="102.207,2.027 110.117,2.027 110.117,3.584 103.869,3.584 103.869,7.236 109.684,7.236 
		109.684,8.795 103.869,8.795 103.869,12.724 110.428,12.724 110.428,14.281 102.207,14.281 	"/>
	<path fill="#231C34" d="M35.437,19.075c-0.096,0.047-0.188,0.092-0.258,0.093c-1.214,0.021-2.505,0.024-4.188,0.008
		c-0.068,0-0.19-0.044-0.25-0.078c-0.002-0.204,0.041-0.389,0.118-0.507c0.047-0.07,0.156-0.134,0.271-0.198
		c0.078-0.044,0.158-0.088,0.232-0.145c0.12-0.09,0.235-0.189,0.339-0.293c0.641-0.641,0.944-1.515,0.832-2.398
		c-0.114-0.893-0.641-1.678-1.448-2.153c-1.158-0.683-2.688-0.488-3.639,0.461c-0.141,0.142-0.266,0.297-0.374,0.464
		c-0.897,1.393-0.533,3.051,0.886,4.03l0.04,0.027c0.371,0.255,0.585,0.403,0.383,0.841c-0.324-0.003-0.649-0.005-0.977-0.007
		c-0.973-0.007-1.979-0.014-2.977-0.043c-0.295-0.007-0.633-0.081-1.034-0.224c-0.469-0.167-0.866-0.119-1.12,0.135
		c-0.066,0.066-0.122,0.147-0.167,0.238c-0.153,0.315-0.199,0.95,0.051,1.178c0.256,0.234,0.668,0.27,1.033,0.302
		c0.05,0.004,0.098,0.008,0.146,0.013c0.141,0.014,0.26-0.066,0.356-0.132c0.041-0.027,0.109-0.074,0.134-0.075
		c1.246-0.024,2.516-0.036,3.745-0.046l0.875-0.008c0.001,0.03,0.003,0.059,0.005,0.085c0.009,0.132,0.016,0.228,0.016,0.321
		c0,1.868,0.002,1.796,0.003,3.663c0.005,5.874,0.01,8.36-0.038,14.333c-0.008,1.03-0.239,2.194-0.703,3.558
		c-0.16,0.468-0.383,0.849-0.665,1.129c-0.526,0.526-1.271,0.737-2.275,0.646c-2.443-0.224-4.321-1.611-5.684-2.796
		c-0.533-0.464-1.021-0.968-1.536-1.503c-0.186-0.191-0.376-0.389-0.57-0.586l1.103-0.758c0.052-0.036,0.082-0.096,0.079-0.158
		c-0.003-0.063-0.038-0.12-0.094-0.15l-3.222-1.792c-0.056-0.031-0.124-0.03-0.179,0.001c-0.055,0.03-0.09,0.088-0.092,0.152
		l-0.133,3.92c-0.001,0.066,0.032,0.128,0.089,0.162s0.128,0.035,0.185,0.002l1.057-0.612c0.006,0.007,0.012,0.015,0.018,0.021
		c0.066,0.081,0.118,0.145,0.165,0.209c1.625,2.302,3.538,3.944,5.85,5.022c1.159,0.54,2.282,1.223,3.368,1.882l0.264,0.159
		c1.666,1.01,2.942,2.117,3.902,3.389c0.031,0.042,0.08,0.068,0.132,0.072c0.053,0.003,0.105-0.016,0.142-0.054
		c0.175-0.175,0.344-0.35,0.509-0.52c0.159-0.164,0.315-0.324,0.472-0.481c0.213-0.213,0.393-0.385,0.567-0.539
		c1.998-1.774,4.326-3.02,6.34-4.005c1.425-0.697,2.708-1.61,3.813-2.717c0.587-0.587,1.14-1.242,1.64-1.948
		c0.108-0.15,0.229-0.301,0.346-0.445c0.023-0.029,0.046-0.057,0.069-0.085l1.091,0.666c0.072,0.044,0.164,0.033,0.224-0.026
		l0.192-0.191c0.035-0.034,0.054-0.082,0.053-0.133l-0.07-3.88c-0.001-0.064-0.036-0.123-0.091-0.155
		c-0.056-0.032-0.125-0.032-0.18-0.001l-3.447,1.929c-0.054,0.03-0.09,0.088-0.093,0.15s0.027,0.123,0.078,0.159l0.977,0.674
		c-0.003,0.004-0.005,0.008-0.009,0.014c-0.045,0.082-0.084,0.152-0.13,0.197l-0.01,0.01c-0.342,0.308-0.686,0.625-1.018,0.933
		c-0.85,0.786-1.728,1.6-2.657,2.307c-1.178,0.898-2.509,1.406-3.958,1.51c-1.527,0.11-2.447-0.443-2.895-1.743
		c-0.461-1.335-0.701-2.554-0.712-3.62c-0.049-4.563-0.044-7.108-0.039-11.595c0.002-1.94,0.004-2.455,0.002-4.429
		c-0.001-0.994-0.02-0.038-0.04-1.08c-0.008-0.425-0.016-0.858-0.022-1.3c0.299,0.006,0.588,0.009,0.871,0.013
		c0.758,0.009,1.474,0.019,2.182,0.062c0.356,0.022,0.721,0.075,1.072,0.127c0.402,0.06,0.818,0.121,1.234,0.138
		c0.29,0.011,0.729-0.106,0.969-0.347c0.037-0.037,0.066-0.075,0.091-0.115c0.187-0.303,0.136-0.905-0.097-1.172
		c-0.221-0.252-0.678-0.283-1.088-0.292C35.707,18.942,35.563,19.013,35.437,19.075 M28.654,16.901
		c-0.486-0.497-0.494-1.312-0.017-1.816c0.008-0.009,0.017-0.019,0.026-0.028c0.502-0.502,1.301-0.496,1.819,0.013
		c0.472,0.464,0.489,1.345,0.035,1.812l-0.012,0.012c-0.238,0.239-0.582,0.374-0.944,0.372
		C29.21,17.264,28.879,17.131,28.654,16.901"/>
	<polygon fill="#778692" points="0.899,23.921 1.183,23.226 5.533,23.76 5.539,23.746 2.106,20.961 2.416,20.197 6.799,20.653 
		6.806,20.644 3.343,17.933 3.625,17.238 7.925,20.698 7.639,21.404 3.161,20.944 3.156,20.959 6.66,23.805 6.374,24.504 	"/>
	<path fill="#778692" d="M8.15,15.288c-1.139-1.085-1.236-2.759-0.127-3.943c1.106-1.18,2.767-1.18,3.908-0.097
		c1.139,1.086,1.235,2.764,0.128,3.944C10.952,16.373,9.289,16.373,8.15,15.288 M11.408,11.807c-0.841-0.8-2.068-0.884-2.897,0.003
		c-0.833,0.888-0.68,2.118,0.162,2.922c0.841,0.799,2.069,0.882,2.897-0.004C12.401,13.839,12.25,12.609,11.408,11.807"/>
	<path fill="#778692" d="M14.042,6.505l1.628-0.898c1.187-0.658,1.877-0.103,2.196,0.485c0.322,0.592,0.187,1.399-0.469,1.863
		l2.474,1.405l-0.786,0.434L16.79,8.385l-0.699,0.389l1.117,2.057l-0.628,0.347L14.042,6.505z M15.786,8.219l0.829-0.458
		c0.497-0.272,0.93-0.668,0.583-1.302c-0.341-0.634-0.905-0.476-1.402-0.201l-0.825,0.453L15.786,8.219z"/>
	<polygon fill="#778692" points="21.523,3.185 22.22,3.015 23.293,7.54 25.652,6.973 25.806,7.631 22.753,8.366 	"/>
	<path fill="#778692" d="M28.917,2l1.842,0.093c2.227,0.108,2.689,1.815,2.643,2.799c-0.066,1.358-1.135,2.611-3.021,2.515
		l-1.722-0.083L28.917,2z M29.405,6.682l0.905,0.043c1.208,0.064,2.269-0.556,2.33-1.874c0.035-0.672-0.252-2.002-1.967-2.085
		l-1.071-0.052L29.405,6.682z"/>
	<polygon fill="#778692" points="37.972,3.041 38.66,3.335 38.074,7.717 38.086,7.721 40.892,4.295 41.646,4.622 41.134,9.034 
		41.148,9.038 43.877,5.581 44.563,5.875 41.075,10.174 40.383,9.871 40.893,5.362 40.88,5.357 38.013,8.854 37.322,8.555 	"/>
	<polygon fill="#778692" points="48.114,8.583 48.669,9.043 45.325,13.165 44.77,12.71 	"/>
	<path fill="#778692" d="M52.136,12.372l1.096,1.491c1.329,1.81,0.319,3.252-0.466,3.839c-1.084,0.812-2.722,0.773-3.848-0.756
		l-1.027-1.4L52.136,12.372z M48.858,15.724l0.538,0.732c0.719,0.982,1.868,1.416,2.915,0.63c0.541-0.401,1.375-1.469,0.353-2.86
		l-0.639-0.87L48.858,15.724z"/>
	<polygon fill="#778692" points="57.065,20.513 58.196,23.757 57.562,23.983 56.669,21.42 55.183,21.943 56.015,24.332 
		55.381,24.553 54.548,22.167 52.952,22.737 53.89,25.428 53.255,25.652 52.079,22.279 	"/>
	<polygon fill="#778692" points="2.25,33.245 5.156,31.052 5.209,31.976 2.978,33.565 5.382,34.923 5.436,35.802 2.292,33.969 
		0.042,34.104 0,33.385 	"/>
	<path fill="#778692" d="M6.253,38.942l0.19,0.627l-4.378,3.753l-0.246-0.802l1.09-0.902l-0.745-2.424l-1.401-0.112l-0.248-0.807
		L6.253,38.942z M3.432,41.181l2.023-1.672l-0.002-0.017l-2.612-0.237L3.432,41.181z"/>
	<path fill="#778692" d="M8.806,46.933c0.174-0.461,0.101-0.998-0.155-1.418c-0.624-1.014-1.841-1.187-2.864-0.55
		c-0.944,0.589-1.365,1.722-0.719,2.781c0.319,0.519,0.789,0.773,1.328,0.81l-0.068,0.761c-0.267-0.021-1.204-0.191-1.84-1.228
		c-0.88-1.441-0.229-3.074,0.899-3.778c1.398-0.871,2.992-0.527,3.847,0.868c0.366,0.599,0.525,1.363,0.272,2.023L8.806,46.933z"/>
	<polygon fill="#778692" points="11.287,48.278 11.803,48.774 10.287,50.373 12.267,52.285 13.781,50.685 14.3,51.187 
		10.648,55.037 10.131,54.539 11.803,52.772 9.824,50.867 8.152,52.63 7.634,52.127 	"/>
	<polygon fill="#778692" points="16.835,53.686 15.361,52.826 15.698,52.238 19.265,54.315 18.926,54.904 17.456,54.045 
		15.15,58.075 14.529,57.714 	"/>
	<path fill="#778692" d="M27.711,57.691c-0.239-0.43-0.695-0.718-1.177-0.787c-1.174-0.17-2.083,0.665-2.253,1.864
		c-0.158,1.11,0.438,2.162,1.658,2.339c0.599,0.087,1.097-0.116,1.466-0.513l0.534,0.541c-0.186,0.198-0.914,0.813-2.11,0.64
		c-1.66-0.238-2.49-1.788-2.303-3.114c0.234-1.64,1.516-2.655,3.126-2.425c0.686,0.099,1.375,0.469,1.716,1.086L27.711,57.691z"/>
	<polygon fill="#778692" points="30.355,56.633 31.066,56.55 31.311,58.75 34.033,58.439 33.787,56.238 34.5,56.162 35.092,61.458 
		34.378,61.537 34.11,59.116 31.386,59.422 31.657,61.846 30.945,61.929 	"/>
	<path fill="#778692" d="M38.193,55.01l0.604-0.237l4.019,4.146l-0.78,0.306l-0.965-1.036l-2.347,0.917l-0.017,1.416l-0.776,0.308
		L38.193,55.01z M40.599,57.691l-1.794-1.923l-0.013,0.007l-0.058,2.645L40.599,57.691z"/>
	<path fill="#778692" d="M42.315,53.049l1.523-1.074c1.107-0.786,1.853-0.308,2.233,0.239c0.389,0.557,0.342,1.369-0.263,1.906
		l2.61,1.123l-0.731,0.517l-2.435-1.146l-0.654,0.465L45.932,57l-0.586,0.41L42.315,53.049z M44.237,54.558l0.771-0.544
		c0.465-0.328,0.852-0.769,0.442-1.359c-0.412-0.595-0.953-0.372-1.419-0.047l-0.768,0.546L44.237,54.558z"/>
	<polygon fill="#778692" points="47.976,49.212 46.831,50.482 46.333,50.027 49.104,46.951 49.602,47.407 48.456,48.677 
		51.87,51.808 51.388,52.34 	"/>
	<polygon fill="#778692" points="50.12,45.448 51.801,42.454 52.383,42.787 51.06,45.151 52.427,45.934 53.665,43.733 
		54.249,44.066 53.014,46.269 54.487,47.11 55.882,44.63 56.466,44.963 54.719,48.075 	"/>
	<path fill="#778692" d="M52.626,40.431l0.521-1.8c0.381-1.307,1.259-1.408,1.896-1.222c0.645,0.194,1.112,0.855,0.973,1.656
		l2.734-0.771l-0.251,0.869l-2.611,0.64l-0.226,0.771l2.235,0.661l-0.203,0.696L52.626,40.431z M55.061,40.397l0.264-0.907
		c0.159-0.552,0.19-1.14-0.497-1.342c-0.687-0.203-0.976,0.308-1.135,0.858l-0.267,0.911L55.061,40.397z"/>
	<path fill="#778692" d="M58.1,35.039c0.403-0.23,0.611-0.664,0.636-1.091c0.029-0.474-0.23-1.077-0.813-1.114
		c-1.212-0.077-0.626,2.592-2.682,2.461c-0.62-0.04-1.44-0.623-1.36-1.899c0.037-0.579,0.188-1.124,0.699-1.495l0.492,0.623
		c-0.287,0.162-0.496,0.504-0.52,0.916c-0.05,0.797,0.411,1.068,0.739,1.089c1.334,0.086,0.7-2.585,2.602-2.466
		c1.017,0.065,1.577,0.929,1.511,1.952c-0.042,0.684-0.311,1.323-0.835,1.652L58.1,35.039z"/>
</g>
</svg>
