<svg xmlns="http://www.w3.org/2000/svg" width="401.48" height="55.196" viewBox="0 0 401.48 55.196"><path fill="#95A0A9" d="M10.348 11.535H6.213v6.888c0 1.698 0 3.492 2.178 3.492.675 0 1.475-.096 2.052-.448v2.627c-.672.386-2.016.513-2.594.513-4.454 0-4.518-2.724-4.518-5.157v-7.914H0v-2.5h3.33v-4.26h2.883v4.26h4.135v2.5zM14.32 0h2.884v11.375h.065c.735-1.602 2.657-2.722 4.997-2.722 2.947 0 5.51 1.76 5.51 5.797v9.772h-2.885v-8.97c0-2.85-1.635-3.91-3.46-3.91-2.402 0-4.228 1.54-4.228 5.064v7.816H14.32V0zM34.57 17.687c0 2.66 2.466 4.422 5.126 4.422 1.762 0 3.043-.9 4.166-2.276L46.04 21.5c-1.603 2.082-3.812 3.108-6.73 3.108-4.804 0-7.816-3.46-7.816-7.978 0-4.55 3.3-7.978 7.848-7.978 5.352 0 7.403 4.1 7.403 8.01v1.024H34.57zm9.1-2.307c-.063-2.53-1.474-4.422-4.39-4.422-2.852 0-4.71 2.404-4.71 4.422h9.1z"/><path fill="#FFF" d="M.058 31.935h3.075v19.802h10.413v2.882H.058M19.6 31.935V45.84c0 2.82 1.412 6.473 5.706 6.473 4.293 0 5.7-3.652 5.7-6.472V31.936h3.078v14.387c0 5.254-3.815 8.875-8.778 8.875-4.968 0-8.78-3.62-8.78-8.875V31.935H19.6zM45.008 42.7L37.38 31.936h3.942l5.897 8.713 5.832-8.714h3.842l-7.56 10.733 8.33 11.95h-4.038l-6.505-9.837-6.534 9.836h-3.813M63.43 31.935V45.84c0 2.82 1.41 6.473 5.705 6.473 4.293 0 5.703-3.652 5.703-6.472V31.936h3.075v14.387c0 5.254-3.81 8.875-8.778 8.875-4.966 0-8.778-3.62-8.778-8.875V31.935h3.074zM83.585 31.936h7.977c5.8 0 7.274 3.493 7.274 6.344 0 2.883-2.15 5.607-5.577 5.992L99.7 54.62h-3.845l-5.768-9.996H86.66v9.996h-3.075V31.936zm3.074 9.996h4.036c2.436 0 4.87-.577 4.87-3.652 0-3.077-2.434-3.653-4.87-3.653H86.66v7.305zM108.194 44.943l-8.59-13.007h3.943l6.186 9.964 6.376-9.964h3.747l-8.59 13.007v9.676h-3.073M145.333 36.837c-1.28-1.665-3.397-2.595-5.477-2.595-5.094 0-8.46 4.068-8.46 9.23 0 4.772 3.173 8.84 8.46 8.84 2.594 0 4.58-1.153 5.928-3.043l2.594 1.953c-.672.93-3.396 3.973-8.586 3.973-7.212 0-11.663-6.023-11.663-11.725 0-7.05 4.837-12.11 11.822-12.11 2.98 0 6.117 1.12 7.946 3.523l-2.565 1.954zM152.352 31.936h3.075v9.418h11.757v-9.417h3.078V54.62h-3.078V44.237h-11.757v10.38h-3.075M183.465 31.937h2.783l9.71 22.682h-3.588l-2.276-5.607h-10.797l-2.243 5.606h-3.59l10-22.683zm5.508 14.384l-4.23-10.413h-.063l-4.296 10.414h8.59zM199.16 31.937h7.98c5.798 0 7.272 3.49 7.272 6.343 0 2.884-2.148 5.606-5.576 5.99l6.44 10.35h-3.845l-5.767-9.996h-3.427v9.996h-3.078V31.937zm3.078 9.994h4.035c2.437 0 4.87-.575 4.87-3.65 0-3.076-2.434-3.653-4.87-3.653h-4.035v7.304zM223.164 34.818h-7.303v-2.88h17.685v2.88h-7.305v19.8h-3.076M237.067 31.937h14.64v2.88h-11.562v6.762h10.765v2.882h-10.765v7.273h12.142v2.884h-15.22M256.903 31.937h7.975c5.8 0 7.274 3.49 7.274 6.343 0 2.884-2.147 5.606-5.577 5.99l6.442 10.35h-3.843l-5.77-9.996h-3.428v9.996h-3.074V31.937zm3.074 9.994h4.034c2.438 0 4.873-.575 4.873-3.65 0-3.076-2.436-3.653-4.872-3.653h-4.033v7.304z"/><path fill="#95A0A9" d="M394.207 32.068h-7.98v22.55h3.08v-9.86h4.9c5.8 0 7.273-3.493 7.273-6.347 0-2.848-1.475-6.342-7.273-6.342m-.864 9.997h-4.037V34.76h4.037c2.434 0 4.87.576 4.87 3.65 0 3.08-2.436 3.655-4.87 3.655m-17.912 3.91c0 2.82-1.41 6.47-5.702 6.47-4.295 0-5.702-3.65-5.702-6.47V32.068h-3.08v14.385c0 3.883 2.086 6.868 5.176 8.166h7.212c3.09-1.3 5.173-4.284 5.173-8.167V32.068h-3.075v13.907zm-49.66-7.564c0-2.85-1.473-6.342-7.273-6.342h-7.976v22.55h3.075v-9.86h3.428l5.69 9.86h3.84l-6.36-10.216c3.43-.38 5.577-3.104 5.577-5.99m-12.175 3.653V34.76h4.038c2.435 0 4.87.576 4.87 3.65 0 3.078-2.436 3.654-4.87 3.654h-4.038zm29.22-10.572c-6.92 0-11.82 5.19-11.82 11.918 0 5.268 3.01 9.578 7.63 11.21h8.383c4.622-1.632 7.632-5.942 7.632-11.21 0-6.727-4.904-11.917-11.824-11.917m0 20.952c-5.19 0-8.557-4.067-8.557-9.034s3.366-9.035 8.556-9.035c5.19 0 8.554 4.07 8.554 9.036s-3.364 9.035-8.554 9.035M294.5 44.948h5.03v6.313c-1.378.77-3.43 1.186-5.573 1.186-5 0-8.813-3.908-8.813-9.034 0-4.967 3.363-9.036 8.556-9.036 2.273 0 4.422.61 6.28 2.404l2.178-2.34c-1.763-1.825-4.295-2.946-8.458-2.946-6.92 0-11.823 5.19-11.823 11.918 0 5.07 2.772 9.534 7.703 11.208h9.604c1.277-.342 2.48-.798 3.422-1.372V42.065H294.5v2.883z"/></svg>