<svg xmlns="http://www.w3.org/2000/svg" width="466.093" height="80.024" viewBox="0 0 466.093 80.024"><path fill="#95A0A9" d="M74.96 36.363h-4.134v6.888c0 1.7 0 3.493 2.178 3.493.674 0 1.474-.096 2.05-.448v2.627c-.67.386-2.015.513-2.593.513-4.453 0-4.517-2.724-4.517-5.157v-7.914h-3.33v-2.5h3.33v-4.26h2.883v4.26h4.135v2.5zM78.932 24.828h2.885v11.375h.065c.736-1.602 2.658-2.722 4.998-2.722 2.947 0 5.51 1.76 5.51 5.798v9.772h-2.885v-8.97c0-2.85-1.635-3.91-3.46-3.91-2.402 0-4.228 1.54-4.228 5.064v7.816h-2.885V24.828zM99.184 42.514c0 2.66 2.465 4.422 5.125 4.422 1.76 0 3.042-.898 4.165-2.275l2.178 1.666c-1.603 2.083-3.812 3.11-6.73 3.11-4.804 0-7.816-3.46-7.816-7.98 0-4.55 3.3-7.977 7.848-7.977 5.352 0 7.403 4.1 7.403 8.008v1.025H99.184zm9.098-2.306c-.062-2.53-1.473-4.422-4.39-4.422-2.85 0-4.708 2.404-4.708 4.422h9.098z"/><path fill="#FFF" d="M64.67 56.762h3.076v19.803H78.16v2.882H64.67M84.212 56.762v13.906c0 2.82 1.412 6.472 5.706 6.472 4.293 0 5.7-3.652 5.7-6.472V56.762h3.078V71.15c0 5.253-3.815 8.874-8.778 8.874-4.968 0-8.78-3.62-8.78-8.875V56.76h3.074zM109.62 67.528l-7.627-10.765h3.942l5.897 8.714 5.833-8.714h3.842l-7.56 10.734 8.33 11.95h-4.038l-6.506-9.836-6.535 9.837h-3.814M128.044 56.762v13.906c0 2.82 1.41 6.472 5.704 6.472 4.293 0 5.703-3.652 5.703-6.472V56.762h3.076V71.15c0 5.253-3.81 8.874-8.778 8.874-4.966 0-8.778-3.62-8.778-8.875V56.76h3.074zM148.198 56.763h7.977c5.8 0 7.274 3.493 7.274 6.344 0 2.883-2.15 5.607-5.578 5.992l6.442 10.347h-3.846L154.7 69.45h-3.428v9.997h-3.074V56.763zm3.074 9.996h4.037c2.435 0 4.87-.578 4.87-3.653 0-3.077-2.435-3.653-4.87-3.653h-4.038v7.305zM172.807 69.77l-8.59-13.007h3.943l6.186 9.965 6.376-9.965h3.748l-8.59 13.008v9.677h-3.073M209.946 61.665c-1.28-1.665-3.397-2.595-5.477-2.595-5.095 0-8.46 4.068-8.46 9.23 0 4.772 3.172 8.84 8.46 8.84 2.593 0 4.58-1.153 5.927-3.043l2.594 1.954c-.67.93-3.395 3.974-8.585 3.974-7.212 0-11.663-6.023-11.663-11.725 0-7.05 4.838-12.113 11.823-12.113 2.98 0 6.117 1.12 7.946 3.524l-2.564 1.955zM216.965 56.763h3.075v9.42h11.757v-9.42h3.078v22.684h-3.078v-10.38H220.04v10.38h-3.075M248.078 56.764h2.783l9.71 22.682h-3.587l-2.276-5.606H243.91l-2.243 5.606h-3.59l10-22.682zm5.508 14.385l-4.23-10.415h-.063l-4.296 10.414h8.59zM263.772 56.764h7.98c5.798 0 7.272 3.49 7.272 6.343 0 2.884-2.148 5.606-5.576 5.99l6.44 10.35h-3.845l-5.768-9.996h-3.427v9.997h-3.078V56.764zm3.08 9.994h4.034c2.437 0 4.87-.576 4.87-3.65 0-3.077-2.434-3.654-4.87-3.654h-4.035v7.304zM287.776 59.646h-7.302v-2.882h17.684v2.882h-7.305v19.8h-3.077M301.68 56.764h14.64v2.882H304.76v6.76h10.764v2.884h-10.764v7.273h12.14v2.884H301.68M321.516 56.764h7.975c5.8 0 7.275 3.49 7.275 6.343 0 2.884-2.147 5.606-5.577 5.99l6.442 10.35h-3.843l-5.77-9.996h-3.428v9.997h-3.075V56.764zm3.074 9.994h4.034c2.437 0 4.872-.576 4.872-3.65 0-3.077-2.436-3.654-4.872-3.654h-4.034v7.304z"/><path fill="#95A0A9" d="M458.82 56.896h-7.982v22.55h3.08v-9.86h4.9c5.8 0 7.274-3.493 7.274-6.347 0-2.85-1.474-6.344-7.273-6.344m-.864 9.997h-4.037v-7.305h4.036c2.434 0 4.87.576 4.87 3.65 0 3.08-2.436 3.655-4.87 3.655m-17.912 3.91c0 2.818-1.41 6.47-5.703 6.47-4.294 0-5.7-3.65-5.7-6.47V56.895h-3.08V71.28c0 3.884 2.085 6.87 5.175 8.167h7.212c3.09-1.298 5.173-4.283 5.173-8.166V56.897h-3.075v13.906zm-49.66-7.564c0-2.85-1.474-6.344-7.274-6.344h-7.976v22.55h3.074v-9.86h3.428l5.69 9.86h3.84l-6.36-10.216c3.43-.38 5.577-3.105 5.577-5.99m-12.175 3.653v-7.305h4.038c2.435 0 4.87.576 4.87 3.65 0 3.078-2.436 3.654-4.87 3.654h-4.038zm29.22-10.572c-6.92 0-11.82 5.19-11.82 11.92 0 5.266 3.01 9.576 7.63 11.207h8.383c4.623-1.63 7.633-5.94 7.633-11.208 0-6.73-4.904-11.92-11.824-11.92m0 20.953c-5.19 0-8.558-4.067-8.558-9.034s3.367-9.037 8.557-9.037 8.553 4.07 8.553 9.036-3.364 9.033-8.554 9.033m-48.317-7.497h5.03v6.313c-1.378.768-3.43 1.184-5.573 1.184-5 0-8.813-3.908-8.813-9.034 0-4.967 3.363-9.036 8.556-9.036 2.273 0 4.422.61 6.28 2.404l2.178-2.34c-1.762-1.825-4.294-2.946-8.457-2.946-6.92 0-11.823 5.19-11.823 11.918 0 5.07 2.772 9.534 7.703 11.208h9.604c1.277-.342 2.48-.798 3.422-1.372V66.893h-8.106v2.883z"/><path fill="#0F004E" d="M.834 20.284l.264-.643 4.024.5.007-.016-3.18-2.578.288-.707 4.055.422.01-.01-3.21-2.51.265-.64 3.978 3.202-.264.653-4.143-.427-.008.014 3.243 2.634-.266.647M7.54 12.294c-1.05-1-1.14-2.55-.11-3.646 1.02-1.093 2.557-1.093 3.61-.09 1.058 1.006 1.146 2.558.126 3.648-1.03 1.093-2.567 1.093-3.625.088m3.02-3.22c-.78-.74-1.912-.816-2.68.003-.77.823-.633 1.96.147 2.704.78.74 1.916.82 2.68-.003.772-.82.628-1.958-.146-2.702M12.994 4.17l1.51-.833c1.098-.606 1.74-.096 2.033.448.296.55.173 1.298-.432 1.727l2.284 1.3-.73.4-2.12-1.302-.648.36 1.032 1.903-.582.32-2.348-4.322zm1.617 1.585l.766-.423c.458-.253.86-.62.543-1.203-.318-.588-.84-.443-1.3-.187l-.76.418.75 1.395zM19.918 1.097l.644-.158.996 4.19 2.18-.528.143.61-2.82.678M26.757 0l1.71.09c2.063.096 2.485 1.675 2.44 2.587-.06 1.255-1.047 2.418-2.79 2.327L26.52 4.93 26.757 0zm.456 4.334l.837.04c1.112.058 2.1-.515 2.155-1.736.03-.622-.23-1.854-1.818-1.927l-.994-.05-.18 3.674zM35.14.96l.635.276-.54 4.056.007.004 2.596-3.17.704.3-.478 4.085.013.003 2.53-3.2.63.276-3.227 3.973-.64-.282.468-4.166-.008-.006-2.652 3.235-.642-.277M44.528 6.09l.51.43-3.093 3.813-.517-.422M48.246 9.598l1.015 1.383c1.232 1.674.297 3.006-.432 3.55-1 .75-2.52.716-3.56-.698l-.95-1.298 3.928-2.936zm-3.033 3.106l.494.672c.667.908 1.73 1.31 2.7.583.5-.37 1.274-1.36.324-2.647l-.587-.805-2.93 2.196zM52.81 17.132l1.042 3.003-.582.207-.83-2.372-1.372.484.765 2.213-.587.205-.767-2.208-1.48.525.868 2.49-.584.205-1.095-3.12"/><path fill="#FFF" d="M2.086 28.916l2.688-2.032.047.857-2.062 1.473 2.222 1.255.057.81-2.912-1.694-2.08.124L0 29.042M5.79 34.184l.174.584-4.05 3.47-.23-.743 1.01-.832-.685-2.243-1.304-.108-.224-.747 5.307.62zM3.177 36.26l1.872-1.55v-.017l-2.418-.22.546 1.786zM8.15 41.582c.16-.43.093-.924-.142-1.313-.577-.94-1.704-1.097-2.652-.51-.875.542-1.262 1.59-.667 2.572.298.48.73.72 1.23.75l-.062.705c-.247-.018-1.12-.177-1.705-1.135-.816-1.337-.213-2.846.835-3.5 1.292-.803 2.765-.487 3.56.804.336.556.485 1.264.25 1.877l-.648-.25zM10.447 42.82l.476.464-1.4 1.48 1.83 1.764 1.397-1.478.483.466-3.378 3.562-.477-.458 1.545-1.64-1.83-1.76-1.546 1.63-.478-.464M15.582 47.826l-1.365-.796.312-.54 3.3 1.92-.312.544-1.364-.796-2.132 3.73-.575-.333M25.647 51.534c-.224-.396-.65-.664-1.092-.73-1.09-.153-1.928.62-2.083 1.727-.147 1.028.404 2 1.532 2.164.554.082 1.012-.103 1.357-.474l.496.502c-.175.185-.848.752-1.955.595-1.536-.224-2.3-1.66-2.13-2.887.215-1.518 1.405-2.456 2.896-2.24.633.09 1.27.43 1.584 1.004l-.603.34zM28.097 50.553l.653-.077.228 2.037 2.52-.286-.23-2.037.658-.072.55 4.9-.663.075-.25-2.24-2.517.285.247 2.24-.655.08M35.346 49.052l.556-.217 3.72 3.835-.725.282-.89-.963-2.17.85-.017 1.313-.722.286.248-5.388zm2.22 2.482l-1.66-1.778-.008.007-.054 2.45 1.723-.68zM39.16 47.24l1.41-.997c1.023-.726 1.71-.28 2.065.224.358.516.317 1.265-.24 1.762l2.41 1.04-.673.478-2.254-1.063-.607.433 1.24 1.776-.547.384-2.804-4.04zm1.776 1.394l.716-.502c.43-.307.79-.716.412-1.26-.386-.548-.89-.344-1.32-.043l-.707.506.9 1.298zM44.394 43.685l-1.056 1.175-.463-.42 2.567-2.843.458.42-1.058 1.175 3.16 2.896-.448.495M46.38 40.207l1.558-2.77.538.306-1.226 2.19 1.264.725 1.145-2.04.538.308-1.14 2.037 1.366.78 1.285-2.293.543.308-1.615 2.876M48.7 35.564l.483-1.666c.35-1.208 1.162-1.306 1.75-1.128.596.175 1.03.788.9 1.53l2.53-.714-.225.804-2.42.595-.21.71 2.068.613-.188.64-4.69-1.384zm2.255-.03l.237-.843c.15-.51.18-1.05-.453-1.24-.637-.188-.905.286-1.06.796l-.24.842 1.515.445zM53.767 30.573c.373-.21.564-.615.587-1.01.026-.44-.21-.996-.75-1.03-1.122-.072-.58 2.398-2.484 2.28-.57-.04-1.33-.58-1.257-1.762.03-.533.173-1.037.644-1.38l.456.573c-.266.154-.456.467-.48.85-.046.738.38.988.686 1.01 1.23.076.643-2.393 2.404-2.285.942.06 1.46.86 1.398 1.805-.04.633-.288 1.228-.778 1.532l-.427-.582z"/></svg>